<?xml version="1.0" encoding="utf-8"?>
<!-- Generator: Adobe Illustrator 17.1.0, SVG Export Plug-In . SVG Version: 6.00 Build 0)  -->
<!DOCTYPE svg PUBLIC "-//W3C//DTD SVG 1.1//EN" "http://www.w3.org/Graphics/SVG/1.1/DTD/svg11.dtd">
<svg version="1.1" id="Layer_1" xmlns="http://www.w3.org/2000/svg" xmlns:xlink="http://www.w3.org/1999/xlink" x="0px" y="0px"
	 viewBox="0 0 137.9 60" enable-background="new 0 0 137.9 60" xml:space="preserve">
<g>
	<path fill="#404041" d="M60.6,13.8l1.8-6.4l3.1,0c0.7,0,1.4-0.9,1.3-1.7c0-0.8-0.6-1.7-1.4-1.7L55.2,4c-0.7,0-1.4,0.9-1.3,1.7
		c0,0.7,0.6,1.7,1.4,1.7l4.4,0l-1.5,4.5L29.6,12l0.5-2.1c0.1-0.4,0-0.6-0.3-0.9c-0.3-0.3-0.6-0.4-1.1-0.4l-8.5,0
		c-0.7,0-1.4,0.4-1.4,1.1c0,0.7,0.6,1.1,1.4,1.1l6.8,0l-0.5,2.7c0,0,0,0.1,0,0.1l-0.8,4l-1.6,4.7c-1.6-0.4-3.3-0.7-5.1-0.7
		C8.5,21.9,0,30.5,0,41.1c0,10.6,8.7,19.1,19.2,19.1c10.6,0,19.1-8.7,19.1-19.2c0-7.8-4.8-14.6-11.6-17.5l0.9-2.7L50,43.6
		c0,0,0.1,0,0.1,0.1c0,0,0.1,0.1,0.1,0.1c0,0,0.1,0.1,0.1,0.1c0,0,0.1,0,0.1,0.1c0.1,0,0.1,0,0.2,0.1c0,0,0.1,0,0.1,0
		c0.1,0,0.2,0,0.3,0c0,0,0.1,0,0.1,0l3.8-0.3c1.4,9.2,9.4,16.3,19,16.3c10.6-0.1,19.1-8.7,19.1-19.2c-0.1-10.6-8.7-19.1-19.2-19.1
		c-2.8,0-5.5,0.6-7.8,1.7l-2.2-4h29.3v-1.6H62.8L60.6,13.8z M35.1,40.9c0,8.8-7.1,16-15.9,16.1c-8.8,0-16-7.1-16.1-15.9
		c0-8.8,7.1-16,15.9-16.1c1.4,0,2.7,0.2,4,0.5l-5.2,15.2c-0.2,0.7,0.1,1.5,0.8,1.7c0.1,0.1,0.3,0.1,0.4,0.1c0.6,0,1.1-0.4,1.3-0.9
		l5.2-15.2C31.2,28.9,35.1,34.4,35.1,40.9z M50.3,39.9L28.5,17.7l0.5-2.3l28.4-0.1L50.3,39.9z M54.8,40.9C54.8,41,54.8,41,54.8,40.9
		l-1.9,0.2l6.8-23.6l4,7.2C58.2,28.2,54.8,34.1,54.8,40.9z M73.7,24.9c8.8,0,16,7.1,16.1,15.9c0,8.8-7.1,16-15.9,16.1
		c-8,0-14.6-5.8-15.8-13.4l15.9-1.3c0.5,0,0.9-0.3,1.1-0.7c0.2-0.4,0.2-0.9,0-1.3l-7.6-14C69.3,25.4,71.5,24.9,73.7,24.9z
		 M71.6,39.7l-13.8,1.1c0-5.5,2.9-10.4,7.2-13.2L71.6,39.7z"/>
	<path fill="#404041" d="M69,15.7h23.9V-0.1H69V15.7z M70.9,14.7l7-6.5l3.1,2.6l3.1-2.6l7,6.5H70.9z M92,14.3l-7.2-6.8L92,1.5V14.3z
		 M91.2,0.9L81,9.6L70.7,0.9H91.2z M70,1.5l7.2,6.1L70,14.3V1.5z"/>
</g>
<rect x="100.1" y="35.6" fill="#404041" width="25.3" height="1.3"/>
<rect x="100.1" y="44.2" fill="#404041" width="37.7" height="1.3"/>
</svg>
