<?xml version="1.0" encoding="utf-8"?>
<!-- Generator: Adobe Illustrator 17.1.0, SVG Export Plug-In . SVG Version: 6.00 Build 0)  -->
<!DOCTYPE svg PUBLIC "-//W3C//DTD SVG 1.1//EN" "http://www.w3.org/Graphics/SVG/1.1/DTD/svg11.dtd">
<svg version="1.1" id="Layer_1" xmlns="http://www.w3.org/2000/svg" xmlns:xlink="http://www.w3.org/1999/xlink" x="0px" y="0px"
	 viewBox="0 0 197 318.9" enable-background="new 0 0 197 318.9" xml:space="preserve">
<g>
	<radialGradient id="SVGID_1_" cx="47.5423" cy="67.8627" r="33.1247" gradientUnits="userSpaceOnUse">
		<stop  offset="0.4835" style="stop-color:#FFFFFF;stop-opacity:0"/>
		<stop  offset="0.5509" style="stop-color:#FFFDFB;stop-opacity:0.1304"/>
		<stop  offset="0.619" style="stop-color:#FFF5EF;stop-opacity:0.2623"/>
		<stop  offset="0.6876" style="stop-color:#FFE9DA;stop-opacity:0.3952"/>
		<stop  offset="0.7565" style="stop-color:#FFD7BE;stop-opacity:0.5286"/>
		<stop  offset="0.8257" style="stop-color:#FFC199;stop-opacity:0.6624"/>
		<stop  offset="0.895" style="stop-color:#FEA56C;stop-opacity:0.7968"/>
		<stop  offset="0.9633" style="stop-color:#FE8538;stop-opacity:0.9289"/>
		<stop  offset="1" style="stop-color:#FE7219"/>
	</radialGradient>
	<circle fill="url(#SVGID_1_)" cx="47.5" cy="67.9" r="33.1"/>
	<g opacity="0.3">
		<path fill="#FFFFFF" d="M33,45.1L27.3,42c-7.6,6.1-12.5,15.4-12.5,25.9c0,4.9,1.1,9.6,3,13.8C15.7,53.2,33,45.1,33,45.1z"/>
	</g>
	
		<radialGradient id="SVGID_2_" cx="337.1379" cy="64.024" r="28.2564" gradientTransform="matrix(-0.4678 -0.2793 -0.4695 0.7864 243.6557 116.7053)" gradientUnits="userSpaceOnUse">
		<stop  offset="0.4835" style="stop-color:#FFFFFF"/>
		<stop  offset="0.5509" style="stop-color:#FFFDFB"/>
		<stop  offset="0.619" style="stop-color:#FFF5EF"/>
		<stop  offset="0.6876" style="stop-color:#FFE9DA"/>
		<stop  offset="0.7565" style="stop-color:#FFD7BE"/>
		<stop  offset="0.8257" style="stop-color:#FFC199"/>
		<stop  offset="0.895" style="stop-color:#FEA56C"/>
		<stop  offset="0.9633" style="stop-color:#FE8538"/>
		<stop  offset="1" style="stop-color:#FE7219"/>
	</radialGradient>
	<path opacity="7.000000e-02" fill="url(#SVGID_2_)" d="M42.7,65c-7.3,12.3-7.4,25.8,0,30.1c7.3,4.4,19.2-2.1,26.5-14.3
		c7.3-12.3,7.3-25.8,0-30.1C61.9,46.3,50,52.7,42.7,65z"/>
	
		<radialGradient id="SVGID_3_" cx="37.0105" cy="58.0485" r="20.3031" gradientTransform="matrix(0.9612 0 0 1.3668 10.3432 -28.4951)" gradientUnits="userSpaceOnUse">
		<stop  offset="0.4835" style="stop-color:#FFFFFF"/>
		<stop  offset="0.5509" style="stop-color:#FFFDFB"/>
		<stop  offset="0.619" style="stop-color:#FFF5EF"/>
		<stop  offset="0.6876" style="stop-color:#FFE9DA"/>
		<stop  offset="0.7565" style="stop-color:#FFD7BE"/>
		<stop  offset="0.8257" style="stop-color:#FFC199"/>
		<stop  offset="0.895" style="stop-color:#FEA56C"/>
		<stop  offset="0.9633" style="stop-color:#FE8538"/>
		<stop  offset="1" style="stop-color:#FE7219"/>
	</radialGradient>
	<path opacity="0.2" fill="url(#SVGID_3_)" d="M19.5,62.3c0,0,20.6-45.1,52.8-9C72.3,53.4,38.3,43.8,19.5,62.3z"/>
	<g opacity="0.45">
		<path fill="#FFFFFF" d="M67.6,44.9c0,0,1.3,4,3.2,4.7c2,0.7,10.6,14.9,9.2,23.8c0,0,0.2-0.4,0.4-1.2c0.2-1.4,0.3-2.7,0.3-4.1
			c0-13.9-8.5-25.7-20.6-30.7C62.1,39,67.5,43.6,67.6,44.9z"/>
	</g>
	<g opacity="0.32">
		
			<radialGradient id="SVGID_4_" cx="-24.8828" cy="60.9062" r="5.9357" gradientTransform="matrix(0.6553 0.2588 -0.141 0.3569 80.3543 27.6904)" gradientUnits="userSpaceOnUse">
			<stop  offset="0.4835" style="stop-color:#FFFFFF"/>
			<stop  offset="0.5509" style="stop-color:#FFFDFB"/>
			<stop  offset="0.619" style="stop-color:#FFF5EF"/>
			<stop  offset="0.6876" style="stop-color:#FFE9DA"/>
			<stop  offset="0.7565" style="stop-color:#FFD7BE"/>
			<stop  offset="0.8257" style="stop-color:#FFC199"/>
			<stop  offset="0.895" style="stop-color:#FEA56C"/>
			<stop  offset="0.9633" style="stop-color:#FE8538"/>
			<stop  offset="1" style="stop-color:#FE7219"/>
		</radialGradient>
		<path fill="url(#SVGID_4_)" d="M59.4,44.5c-0.5,1.2-2.6,1.4-4.8,0.5c-2.2-0.9-3.6-2.5-3.1-3.6c0.5-1.2,2.6-1.4,4.8-0.5
			C58.5,41.8,59.9,43.4,59.4,44.5z"/>
		
			<radialGradient id="SVGID_5_" cx="11.2609" cy="178.8984" r="3.8507" gradientTransform="matrix(0.5444 0.4472 -0.2436 0.2965 100.1037 -10.969)" gradientUnits="userSpaceOnUse">
			<stop  offset="0.4835" style="stop-color:#FFFFFF"/>
			<stop  offset="0.5509" style="stop-color:#FFFDFB"/>
			<stop  offset="0.619" style="stop-color:#FFF5EF"/>
			<stop  offset="0.6876" style="stop-color:#FFE9DA"/>
			<stop  offset="0.7565" style="stop-color:#FFD7BE"/>
			<stop  offset="0.8257" style="stop-color:#FFC199"/>
			<stop  offset="0.895" style="stop-color:#FEA56C"/>
			<stop  offset="0.9633" style="stop-color:#FE8538"/>
			<stop  offset="1" style="stop-color:#FE7219"/>
		</radialGradient>
		<path fill="url(#SVGID_5_)" d="M64.8,48.9c-0.5,0.6-1.9,0.3-3-0.6c-1.2-1-1.7-2.2-1.2-2.9c0.5-0.6,1.9-0.3,3,0.6
			C64.8,46.9,65.3,48.2,64.8,48.9z"/>
		
			<radialGradient id="SVGID_6_" cx="19.4606" cy="179.0531" r="1.9832" gradientTransform="matrix(0.5444 0.4472 -0.2436 0.2965 100.1037 -10.969)" gradientUnits="userSpaceOnUse">
			<stop  offset="0.4835" style="stop-color:#FFFFFF"/>
			<stop  offset="0.5509" style="stop-color:#FFFDFB"/>
			<stop  offset="0.619" style="stop-color:#FFF5EF"/>
			<stop  offset="0.6876" style="stop-color:#FFE9DA"/>
			<stop  offset="0.7565" style="stop-color:#FFD7BE"/>
			<stop  offset="0.8257" style="stop-color:#FFC199"/>
			<stop  offset="0.895" style="stop-color:#FEA56C"/>
			<stop  offset="0.9633" style="stop-color:#FE8538"/>
			<stop  offset="1" style="stop-color:#FE7219"/>
		</radialGradient>
		<path fill="url(#SVGID_6_)" d="M68.2,51.7c-0.3,0.3-1,0.2-1.6-0.3c-0.6-0.5-0.9-1.2-0.6-1.5c0.3-0.3,1-0.2,1.6,0.3
			C68.2,50.7,68.4,51.4,68.2,51.7z"/>
	</g>
	<g opacity="0.32">
		
			<radialGradient id="SVGID_7_" cx="-79.9547" cy="349.7045" r="3.6565" gradientTransform="matrix(0.3361 0.6192 0.3373 -0.183 -68.6739 196.8813)" gradientUnits="userSpaceOnUse">
			<stop  offset="0.4835" style="stop-color:#FFFFFF"/>
			<stop  offset="0.5509" style="stop-color:#FFFDFB"/>
			<stop  offset="0.619" style="stop-color:#FFF5EF"/>
			<stop  offset="0.6876" style="stop-color:#FFE9DA"/>
			<stop  offset="0.7565" style="stop-color:#FFD7BE"/>
			<stop  offset="0.8257" style="stop-color:#FFC199"/>
			<stop  offset="0.895" style="stop-color:#FEA56C"/>
			<stop  offset="0.9633" style="stop-color:#FE8538"/>
			<stop  offset="1" style="stop-color:#FE7219"/>
		</radialGradient>
		<path fill="url(#SVGID_7_)" d="M23.7,85.7c0.7-0.4,0.7-1.7,0-3c-0.7-1.3-1.8-2-2.5-1.6c-0.7,0.4-0.7,1.7,0,3
			C21.9,85.3,23,86,23.7,85.7z"/>
		
			<radialGradient id="SVGID_8_" cx="3.4681" cy="487.3442" r="2.3723" gradientTransform="matrix(0.5097 0.4864 0.2649 -0.2776 -105.4011 221.0701)" gradientUnits="userSpaceOnUse">
			<stop  offset="0.4835" style="stop-color:#FFFFFF"/>
			<stop  offset="0.5509" style="stop-color:#FFFDFB"/>
			<stop  offset="0.619" style="stop-color:#FFF5EF"/>
			<stop  offset="0.6876" style="stop-color:#FFE9DA"/>
			<stop  offset="0.7565" style="stop-color:#FFD7BE"/>
			<stop  offset="0.8257" style="stop-color:#FFC199"/>
			<stop  offset="0.895" style="stop-color:#FEA56C"/>
			<stop  offset="0.9633" style="stop-color:#FE8538"/>
			<stop  offset="1" style="stop-color:#FE7219"/>
		</radialGradient>
		<path fill="url(#SVGID_8_)" d="M26.7,88.6c0.3-0.4,0.1-1.2-0.6-1.8c-0.7-0.6-1.5-0.9-1.8-0.5c-0.3,0.4-0.1,1.2,0.6,1.8
			C25.5,88.8,26.3,89,26.7,88.6z"/>
		
			<radialGradient id="SVGID_9_" cx="8.5191" cy="487.4393" r="1.2215" gradientTransform="matrix(0.5097 0.4864 0.2649 -0.2776 -105.4011 221.0701)" gradientUnits="userSpaceOnUse">
			<stop  offset="0.4835" style="stop-color:#FFFFFF"/>
			<stop  offset="0.5509" style="stop-color:#FFFDFB"/>
			<stop  offset="0.619" style="stop-color:#FFF5EF"/>
			<stop  offset="0.6876" style="stop-color:#FFE9DA"/>
			<stop  offset="0.7565" style="stop-color:#FFD7BE"/>
			<stop  offset="0.8257" style="stop-color:#FFC199"/>
			<stop  offset="0.895" style="stop-color:#FEA56C"/>
			<stop  offset="0.9633" style="stop-color:#FE8538"/>
			<stop  offset="1" style="stop-color:#FE7219"/>
		</radialGradient>
		<path fill="url(#SVGID_9_)" d="M28.7,90.5c0.2-0.2,0-0.6-0.3-0.9c-0.3-0.3-0.8-0.5-0.9-0.3c-0.2,0.2,0,0.6,0.3,0.9
			C28.1,90.6,28.5,90.7,28.7,90.5z"/>
	</g>
</g>
<g>
	<radialGradient id="SVGID_10_" cx="60.4305" cy="174.7553" r="47.5939" gradientUnits="userSpaceOnUse">
		<stop  offset="0.4835" style="stop-color:#FFFFFF;stop-opacity:0"/>
		<stop  offset="0.5509" style="stop-color:#FFFDFB;stop-opacity:0.1304"/>
		<stop  offset="0.619" style="stop-color:#FFF5EF;stop-opacity:0.2623"/>
		<stop  offset="0.6876" style="stop-color:#FFE9DA;stop-opacity:0.3952"/>
		<stop  offset="0.7565" style="stop-color:#FFD7BE;stop-opacity:0.5286"/>
		<stop  offset="0.8257" style="stop-color:#FFC199;stop-opacity:0.6624"/>
		<stop  offset="0.895" style="stop-color:#FEA56C;stop-opacity:0.7968"/>
		<stop  offset="0.9633" style="stop-color:#FE8538;stop-opacity:0.9289"/>
		<stop  offset="1" style="stop-color:#FE7219"/>
	</radialGradient>
	<circle fill="url(#SVGID_10_)" cx="60.4" cy="174.8" r="47.6"/>
	<g opacity="0.3">
		<path fill="#FFFFFF" d="M39.6,142l-8.2-4.4c-10.9,8.7-17.9,22.1-17.9,37.2c0,7.1,1.5,13.8,4.3,19.8C14.7,153.7,39.6,142,39.6,142z
			"/>
	</g>
	
		<radialGradient id="SVGID_11_" cx="208.4473" cy="157.0375" r="40.599" gradientTransform="matrix(-0.4678 -0.2793 -0.4695 0.7864 243.6557 116.7053)" gradientUnits="userSpaceOnUse">
		<stop  offset="0.4835" style="stop-color:#FFFFFF"/>
		<stop  offset="0.5509" style="stop-color:#FFFDFB"/>
		<stop  offset="0.619" style="stop-color:#FFF5EF"/>
		<stop  offset="0.6876" style="stop-color:#FFE9DA"/>
		<stop  offset="0.7565" style="stop-color:#FFD7BE"/>
		<stop  offset="0.8257" style="stop-color:#FFC199"/>
		<stop  offset="0.895" style="stop-color:#FEA56C"/>
		<stop  offset="0.9633" style="stop-color:#FE8538"/>
		<stop  offset="1" style="stop-color:#FE7219"/>
	</radialGradient>
	<path opacity="7.000000e-02" fill="url(#SVGID_11_)" d="M53.4,170.6c-10.5,17.6-10.6,37-0.1,43.3c10.5,6.3,27.5-3,38.1-20.6
		c10.5-17.6,10.6-37,0.1-43.3C81,143.8,64,153,53.4,170.6z"/>
	
		<radialGradient id="SVGID_12_" cx="49.6807" cy="130.8165" r="29.1716" gradientTransform="matrix(0.9612 0 0 1.3668 10.3432 -28.4951)" gradientUnits="userSpaceOnUse">
		<stop  offset="0.4835" style="stop-color:#FFFFFF"/>
		<stop  offset="0.5509" style="stop-color:#FFFDFB"/>
		<stop  offset="0.619" style="stop-color:#FFF5EF"/>
		<stop  offset="0.6876" style="stop-color:#FFE9DA"/>
		<stop  offset="0.7565" style="stop-color:#FFD7BE"/>
		<stop  offset="0.8257" style="stop-color:#FFC199"/>
		<stop  offset="0.895" style="stop-color:#FEA56C"/>
		<stop  offset="0.9633" style="stop-color:#FE8538"/>
		<stop  offset="1" style="stop-color:#FE7219"/>
	</radialGradient>
	<path opacity="0.2" fill="url(#SVGID_12_)" d="M20.2,166.8c0,0,29.6-64.9,75.8-12.9C96,154,47.1,140.2,20.2,166.8z"/>
	<g opacity="0.45">
		<path fill="#FFFFFF" d="M89.3,141.7c0,0,1.8,5.7,4.7,6.7c2.8,1,15.3,21.5,13.2,34.2c0,0,0.2-0.6,0.5-1.7c0.2-2,0.4-3.9,0.4-6
			c0-19.9-12.2-37-29.6-44.1C81.3,133.3,89.1,139.8,89.3,141.7z"/>
	</g>
	<g opacity="0.32">
		
			<radialGradient id="SVGID_13_" cx="46.7757" cy="278.0033" r="8.5285" gradientTransform="matrix(0.6553 0.2588 -0.141 0.3569 80.3543 27.6904)" gradientUnits="userSpaceOnUse">
			<stop  offset="0.4835" style="stop-color:#FFFFFF"/>
			<stop  offset="0.5509" style="stop-color:#FFFDFB"/>
			<stop  offset="0.619" style="stop-color:#FFF5EF"/>
			<stop  offset="0.6876" style="stop-color:#FFE9DA"/>
			<stop  offset="0.7565" style="stop-color:#FFD7BE"/>
			<stop  offset="0.8257" style="stop-color:#FFC199"/>
			<stop  offset="0.895" style="stop-color:#FEA56C"/>
			<stop  offset="0.9633" style="stop-color:#FE8538"/>
			<stop  offset="1" style="stop-color:#FE7219"/>
		</radialGradient>
		<path fill="url(#SVGID_13_)" d="M77.5,141.2c-0.7,1.7-3.7,2-6.8,0.8c-3.1-1.2-5.1-3.6-4.5-5.2c0.7-1.7,3.7-2,6.8-0.8
			C76.1,137.2,78.1,139.6,77.5,141.2z"/>
		
			<radialGradient id="SVGID_14_" cx="120.7825" cy="343.6527" r="5.5328" gradientTransform="matrix(0.5444 0.4472 -0.2436 0.2965 100.1037 -10.969)" gradientUnits="userSpaceOnUse">
			<stop  offset="0.4835" style="stop-color:#FFFFFF"/>
			<stop  offset="0.5509" style="stop-color:#FFFDFB"/>
			<stop  offset="0.619" style="stop-color:#FFF5EF"/>
			<stop  offset="0.6876" style="stop-color:#FFE9DA"/>
			<stop  offset="0.7565" style="stop-color:#FFD7BE"/>
			<stop  offset="0.8257" style="stop-color:#FFC199"/>
			<stop  offset="0.895" style="stop-color:#FEA56C"/>
			<stop  offset="0.9633" style="stop-color:#FE8538"/>
			<stop  offset="1" style="stop-color:#FE7219"/>
		</radialGradient>
		<path fill="url(#SVGID_14_)" d="M85.2,147.4c-0.7,0.9-2.7,0.5-4.4-0.9c-1.7-1.4-2.5-3.2-1.7-4.1c0.7-0.9,2.7-0.5,4.4,0.9
			C85.2,144.7,85.9,146.5,85.2,147.4z"/>
		
			<radialGradient id="SVGID_15_" cx="132.5638" cy="343.875" r="2.8496" gradientTransform="matrix(0.5444 0.4472 -0.2436 0.2965 100.1037 -10.969)" gradientUnits="userSpaceOnUse">
			<stop  offset="0.4835" style="stop-color:#FFFFFF"/>
			<stop  offset="0.5509" style="stop-color:#FFFDFB"/>
			<stop  offset="0.619" style="stop-color:#FFF5EF"/>
			<stop  offset="0.6876" style="stop-color:#FFE9DA"/>
			<stop  offset="0.7565" style="stop-color:#FFD7BE"/>
			<stop  offset="0.8257" style="stop-color:#FFC199"/>
			<stop  offset="0.895" style="stop-color:#FEA56C"/>
			<stop  offset="0.9633" style="stop-color:#FE8538"/>
			<stop  offset="1" style="stop-color:#FE7219"/>
		</radialGradient>
		<path fill="url(#SVGID_15_)" d="M90.1,151.6c-0.4,0.5-1.4,0.3-2.3-0.5c-0.9-0.7-1.3-1.7-0.9-2.1c0.4-0.5,1.4-0.3,2.3,0.5
			C90.1,150.1,90.5,151.1,90.1,151.6z"/>
	</g>
	<g opacity="0.32">
		
			<radialGradient id="SVGID_16_" cx="63.1503" cy="212.7702" r="5.2537" gradientTransform="matrix(0.3361 0.6192 0.3373 -0.183 -68.6739 196.8813)" gradientUnits="userSpaceOnUse">
			<stop  offset="0.4835" style="stop-color:#FFFFFF"/>
			<stop  offset="0.5509" style="stop-color:#FFFDFB"/>
			<stop  offset="0.619" style="stop-color:#FFF5EF"/>
			<stop  offset="0.6876" style="stop-color:#FFE9DA"/>
			<stop  offset="0.7565" style="stop-color:#FFD7BE"/>
			<stop  offset="0.8257" style="stop-color:#FFC199"/>
			<stop  offset="0.895" style="stop-color:#FEA56C"/>
			<stop  offset="0.9633" style="stop-color:#FE8538"/>
			<stop  offset="1" style="stop-color:#FE7219"/>
		</radialGradient>
		<path fill="url(#SVGID_16_)" d="M26.1,200.3c1-0.5,1-2.4,0-4.2c-1-1.8-2.6-2.9-3.5-2.3c-1,0.5-1,2.4,0,4.2
			C23.6,199.8,25.1,200.9,26.1,200.3z"/>
		
			<radialGradient id="SVGID_17_" cx="119.9335" cy="275.4976" r="3.4085" gradientTransform="matrix(0.5097 0.4864 0.2649 -0.2776 -105.4011 221.0701)" gradientUnits="userSpaceOnUse">
			<stop  offset="0.4835" style="stop-color:#FFFFFF"/>
			<stop  offset="0.5509" style="stop-color:#FFFDFB"/>
			<stop  offset="0.619" style="stop-color:#FFF5EF"/>
			<stop  offset="0.6876" style="stop-color:#FFE9DA"/>
			<stop  offset="0.7565" style="stop-color:#FFD7BE"/>
			<stop  offset="0.8257" style="stop-color:#FFC199"/>
			<stop  offset="0.895" style="stop-color:#FEA56C"/>
			<stop  offset="0.9633" style="stop-color:#FE8538"/>
			<stop  offset="1" style="stop-color:#FE7219"/>
		</radialGradient>
		<path fill="url(#SVGID_17_)" d="M30.5,204.6c0.5-0.5,0.1-1.7-0.9-2.6c-1-0.9-2.2-1.3-2.6-0.7c-0.5,0.5-0.1,1.7,0.9,2.6
			C28.8,204.8,30,205.1,30.5,204.6z"/>
		
			<radialGradient id="SVGID_18_" cx="127.1908" cy="275.6342" r="1.755" gradientTransform="matrix(0.5097 0.4864 0.2649 -0.2776 -105.4011 221.0701)" gradientUnits="userSpaceOnUse">
			<stop  offset="0.4835" style="stop-color:#FFFFFF"/>
			<stop  offset="0.5509" style="stop-color:#FFFDFB"/>
			<stop  offset="0.619" style="stop-color:#FFF5EF"/>
			<stop  offset="0.6876" style="stop-color:#FFE9DA"/>
			<stop  offset="0.7565" style="stop-color:#FFD7BE"/>
			<stop  offset="0.8257" style="stop-color:#FFC199"/>
			<stop  offset="0.895" style="stop-color:#FEA56C"/>
			<stop  offset="0.9633" style="stop-color:#FE8538"/>
			<stop  offset="1" style="stop-color:#FE7219"/>
		</radialGradient>
		<path fill="url(#SVGID_18_)" d="M33.3,207.3c0.3-0.3,0.1-0.9-0.4-1.3c-0.5-0.5-1.1-0.6-1.4-0.4c-0.3,0.3-0.1,0.9,0.4,1.3
			C32.5,207.4,33.1,207.5,33.3,207.3z"/>
	</g>
</g>
<g>
	<radialGradient id="SVGID_19_" cx="142.8667" cy="108.381" r="20.4123" gradientUnits="userSpaceOnUse">
		<stop  offset="0.4835" style="stop-color:#FFFFFF;stop-opacity:0"/>
		<stop  offset="0.5509" style="stop-color:#FFFDFB;stop-opacity:0.1304"/>
		<stop  offset="0.619" style="stop-color:#FFF5EF;stop-opacity:0.2623"/>
		<stop  offset="0.6876" style="stop-color:#FFE9DA;stop-opacity:0.3952"/>
		<stop  offset="0.7565" style="stop-color:#FFD7BE;stop-opacity:0.5286"/>
		<stop  offset="0.8257" style="stop-color:#FFC199;stop-opacity:0.6624"/>
		<stop  offset="0.895" style="stop-color:#FEA56C;stop-opacity:0.7968"/>
		<stop  offset="0.9633" style="stop-color:#FE8538;stop-opacity:0.9289"/>
		<stop  offset="1" style="stop-color:#FE7219"/>
	</radialGradient>
	<circle fill="url(#SVGID_19_)" cx="142.9" cy="108.4" r="20.4"/>
	<g opacity="0.3">
		<path fill="#FFFFFF" d="M133.9,94.3l-3.5-1.9c-4.7,3.7-7.7,9.5-7.7,15.9c0,3,0.7,5.9,1.8,8.5C123.2,99.4,133.9,94.3,133.9,94.3z"
			/>
	</g>
	
		<radialGradient id="SVGID_20_" cx="155.6521" cy="48.6368" r="17.4123" gradientTransform="matrix(-0.4678 -0.2793 -0.4695 0.7864 243.6557 116.7053)" gradientUnits="userSpaceOnUse">
		<stop  offset="0.4835" style="stop-color:#FFFFFF"/>
		<stop  offset="0.5509" style="stop-color:#FFFDFB"/>
		<stop  offset="0.619" style="stop-color:#FFF5EF"/>
		<stop  offset="0.6876" style="stop-color:#FFE9DA"/>
		<stop  offset="0.7565" style="stop-color:#FFD7BE"/>
		<stop  offset="0.8257" style="stop-color:#FFC199"/>
		<stop  offset="0.895" style="stop-color:#FEA56C"/>
		<stop  offset="0.9633" style="stop-color:#FE8538"/>
		<stop  offset="1" style="stop-color:#FE7219"/>
	</radialGradient>
	<path opacity="7.000000e-02" fill="url(#SVGID_20_)" d="M139.9,106.6c-4.5,7.6-4.5,15.9,0,18.6c4.5,2.7,11.8-1.3,16.3-8.8
		c4.5-7.6,4.5-15.9,0-18.6C151.7,95.1,144.4,99.1,139.9,106.6z"/>
	
		<radialGradient id="SVGID_21_" cx="136.8315" cy="92.4713" r="12.5113" gradientTransform="matrix(0.9612 0 0 1.3668 10.3432 -28.4951)" gradientUnits="userSpaceOnUse">
		<stop  offset="0.4835" style="stop-color:#FFFFFF"/>
		<stop  offset="0.5509" style="stop-color:#FFFDFB"/>
		<stop  offset="0.619" style="stop-color:#FFF5EF"/>
		<stop  offset="0.6876" style="stop-color:#FFE9DA"/>
		<stop  offset="0.7565" style="stop-color:#FFD7BE"/>
		<stop  offset="0.8257" style="stop-color:#FFC199"/>
		<stop  offset="0.895" style="stop-color:#FEA56C"/>
		<stop  offset="0.9633" style="stop-color:#FE8538"/>
		<stop  offset="1" style="stop-color:#FE7219"/>
	</radialGradient>
	<path opacity="0.2" fill="url(#SVGID_21_)" d="M125.6,105c0,0,12.7-27.8,32.5-5.5C158.1,99.5,137.1,93.6,125.6,105z"/>
	<g opacity="0.45">
		<path fill="#FFFFFF" d="M155.2,94.2c0,0,0.8,2.4,2,2.9c1.2,0.4,6.5,9.2,5.7,14.7c0,0,0.1-0.3,0.2-0.7c0.1-0.8,0.2-1.7,0.2-2.6
			c0-8.5-5.2-15.9-12.7-18.9C151.8,90.6,155.1,93.4,155.2,94.2z"/>
	</g>
	<g opacity="0.32">
		
			<radialGradient id="SVGID_22_" cx="123.0485" cy="93.9124" r="3.6577" gradientTransform="matrix(0.6553 0.2588 -0.141 0.3569 80.3543 27.6904)" gradientUnits="userSpaceOnUse">
			<stop  offset="0.4835" style="stop-color:#FFFFFF"/>
			<stop  offset="0.5509" style="stop-color:#FFFDFB"/>
			<stop  offset="0.619" style="stop-color:#FFF5EF"/>
			<stop  offset="0.6876" style="stop-color:#FFE9DA"/>
			<stop  offset="0.7565" style="stop-color:#FFD7BE"/>
			<stop  offset="0.8257" style="stop-color:#FFC199"/>
			<stop  offset="0.895" style="stop-color:#FEA56C"/>
			<stop  offset="0.9633" style="stop-color:#FE8538"/>
			<stop  offset="1" style="stop-color:#FE7219"/>
		</radialGradient>
		<path fill="url(#SVGID_22_)" d="M150.2,94c-0.3,0.7-1.6,0.9-2.9,0.3c-1.3-0.5-2.2-1.5-1.9-2.2c0.3-0.7,1.6-0.9,2.9-0.3
			C149.6,92.3,150.5,93.3,150.2,94z"/>
		
			<radialGradient id="SVGID_23_" cx="153.1292" cy="128.44" r="2.3729" gradientTransform="matrix(0.5444 0.4472 -0.2436 0.2965 100.1037 -10.969)" gradientUnits="userSpaceOnUse">
			<stop  offset="0.4835" style="stop-color:#FFFFFF"/>
			<stop  offset="0.5509" style="stop-color:#FFFDFB"/>
			<stop  offset="0.619" style="stop-color:#FFF5EF"/>
			<stop  offset="0.6876" style="stop-color:#FFE9DA"/>
			<stop  offset="0.7565" style="stop-color:#FFD7BE"/>
			<stop  offset="0.8257" style="stop-color:#FFC199"/>
			<stop  offset="0.895" style="stop-color:#FEA56C"/>
			<stop  offset="0.9633" style="stop-color:#FE8538"/>
			<stop  offset="1" style="stop-color:#FE7219"/>
		</radialGradient>
		<path fill="url(#SVGID_23_)" d="M153.5,96.7c-0.3,0.4-1.2,0.2-1.9-0.4c-0.7-0.6-1.1-1.4-0.7-1.8c0.3-0.4,1.2-0.2,1.9,0.4
			C153.5,95.5,153.8,96.3,153.5,96.7z"/>
		
			<radialGradient id="SVGID_24_" cx="158.182" cy="128.5353" r="1.2221" gradientTransform="matrix(0.5444 0.4472 -0.2436 0.2965 100.1037 -10.969)" gradientUnits="userSpaceOnUse">
			<stop  offset="0.4835" style="stop-color:#FFFFFF"/>
			<stop  offset="0.5509" style="stop-color:#FFFDFB"/>
			<stop  offset="0.619" style="stop-color:#FFF5EF"/>
			<stop  offset="0.6876" style="stop-color:#FFE9DA"/>
			<stop  offset="0.7565" style="stop-color:#FFD7BE"/>
			<stop  offset="0.8257" style="stop-color:#FFC199"/>
			<stop  offset="0.895" style="stop-color:#FEA56C"/>
			<stop  offset="0.9633" style="stop-color:#FE8538"/>
			<stop  offset="1" style="stop-color:#FE7219"/>
		</radialGradient>
		<path fill="url(#SVGID_24_)" d="M155.6,98.4c-0.2,0.2-0.6,0.1-1-0.2c-0.4-0.3-0.5-0.7-0.4-0.9c0.2-0.2,0.6-0.1,1,0.2
			C155.6,97.8,155.7,98.2,155.6,98.4z"/>
	</g>
	<g opacity="0.32">
		
			<radialGradient id="SVGID_25_" cx="34.2181" cy="547.1449" r="2.2532" gradientTransform="matrix(0.3361 0.6192 0.3373 -0.183 -68.6739 196.8813)" gradientUnits="userSpaceOnUse">
			<stop  offset="0.4835" style="stop-color:#FFFFFF"/>
			<stop  offset="0.5509" style="stop-color:#FFFDFB"/>
			<stop  offset="0.619" style="stop-color:#FFF5EF"/>
			<stop  offset="0.6876" style="stop-color:#FFE9DA"/>
			<stop  offset="0.7565" style="stop-color:#FFD7BE"/>
			<stop  offset="0.8257" style="stop-color:#FFC199"/>
			<stop  offset="0.895" style="stop-color:#FEA56C"/>
			<stop  offset="0.9633" style="stop-color:#FE8538"/>
			<stop  offset="1" style="stop-color:#FE7219"/>
		</radialGradient>
		<path fill="url(#SVGID_25_)" d="M128.1,119.4c0.4-0.2,0.4-1,0-1.8c-0.4-0.8-1.1-1.2-1.5-1c-0.4,0.2-0.4,1,0,1.8
			C127.1,119.1,127.7,119.6,128.1,119.4z"/>
		
			<radialGradient id="SVGID_26_" cx="142.3826" cy="611.8925" r="1.4618" gradientTransform="matrix(0.5097 0.4864 0.2649 -0.2776 -105.4011 221.0701)" gradientUnits="userSpaceOnUse">
			<stop  offset="0.4835" style="stop-color:#FFFFFF"/>
			<stop  offset="0.5509" style="stop-color:#FFFDFB"/>
			<stop  offset="0.619" style="stop-color:#FFF5EF"/>
			<stop  offset="0.6876" style="stop-color:#FFE9DA"/>
			<stop  offset="0.7565" style="stop-color:#FFD7BE"/>
			<stop  offset="0.8257" style="stop-color:#FFC199"/>
			<stop  offset="0.895" style="stop-color:#FEA56C"/>
			<stop  offset="0.9633" style="stop-color:#FE8538"/>
			<stop  offset="1" style="stop-color:#FE7219"/>
		</radialGradient>
		<path fill="url(#SVGID_26_)" d="M130,121.2c0.2-0.2,0-0.7-0.4-1.1c-0.4-0.4-0.9-0.5-1.1-0.3c-0.2,0.2,0,0.7,0.4,1.1
			C129.3,121.3,129.8,121.4,130,121.2z"/>
		
			<radialGradient id="SVGID_27_" cx="145.4951" cy="611.951" r="0.7527" gradientTransform="matrix(0.5097 0.4864 0.2649 -0.2776 -105.4011 221.0701)" gradientUnits="userSpaceOnUse">
			<stop  offset="0.4835" style="stop-color:#FFFFFF"/>
			<stop  offset="0.5509" style="stop-color:#FFFDFB"/>
			<stop  offset="0.619" style="stop-color:#FFF5EF"/>
			<stop  offset="0.6876" style="stop-color:#FFE9DA"/>
			<stop  offset="0.7565" style="stop-color:#FFD7BE"/>
			<stop  offset="0.8257" style="stop-color:#FFC199"/>
			<stop  offset="0.895" style="stop-color:#FEA56C"/>
			<stop  offset="0.9633" style="stop-color:#FE8538"/>
			<stop  offset="1" style="stop-color:#FE7219"/>
		</radialGradient>
		<path fill="url(#SVGID_27_)" d="M131.3,122.3c0.1-0.1,0-0.4-0.2-0.6c-0.2-0.2-0.5-0.3-0.6-0.2c-0.1,0.1,0,0.4,0.2,0.6
			C130.9,122.4,131.1,122.4,131.3,122.3z"/>
	</g>
</g>
<g>
	<radialGradient id="SVGID_28_" cx="116.4207" cy="246.5757" r="20.4123" gradientUnits="userSpaceOnUse">
		<stop  offset="0.4835" style="stop-color:#FFFFFF;stop-opacity:0"/>
		<stop  offset="0.5509" style="stop-color:#FFFDFB;stop-opacity:0.1304"/>
		<stop  offset="0.619" style="stop-color:#FFF5EF;stop-opacity:0.2623"/>
		<stop  offset="0.6876" style="stop-color:#FFE9DA;stop-opacity:0.3952"/>
		<stop  offset="0.7565" style="stop-color:#FFD7BE;stop-opacity:0.5286"/>
		<stop  offset="0.8257" style="stop-color:#FFC199;stop-opacity:0.6624"/>
		<stop  offset="0.895" style="stop-color:#FEA56C;stop-opacity:0.7968"/>
		<stop  offset="0.9633" style="stop-color:#FE8538;stop-opacity:0.9289"/>
		<stop  offset="1" style="stop-color:#FE7219"/>
	</radialGradient>
	<circle fill="url(#SVGID_28_)" cx="116.4" cy="246.6" r="20.4"/>
	<g opacity="0.3">
		<path fill="#FFFFFF" d="M107.5,232.5l-3.5-1.9c-4.7,3.7-7.7,9.5-7.7,15.9c0,3,0.7,5.9,1.8,8.5C96.8,237.5,107.5,232.5,107.5,232.5
			z"/>
	</g>
	
		<radialGradient id="SVGID_29_" cx="67.3065" cy="192.9906" r="17.4123" gradientTransform="matrix(-0.4678 -0.2793 -0.4695 0.7864 243.6557 116.7053)" gradientUnits="userSpaceOnUse">
		<stop  offset="0.4835" style="stop-color:#FFFFFF"/>
		<stop  offset="0.5509" style="stop-color:#FFFDFB"/>
		<stop  offset="0.619" style="stop-color:#FFF5EF"/>
		<stop  offset="0.6876" style="stop-color:#FFE9DA"/>
		<stop  offset="0.7565" style="stop-color:#FFD7BE"/>
		<stop  offset="0.8257" style="stop-color:#FFC199"/>
		<stop  offset="0.895" style="stop-color:#FEA56C"/>
		<stop  offset="0.9633" style="stop-color:#FE8538"/>
		<stop  offset="1" style="stop-color:#FE7219"/>
	</radialGradient>
	<path opacity="7.000000e-02" fill="url(#SVGID_29_)" d="M113.4,244.8c-4.5,7.6-4.5,15.9,0,18.6c4.5,2.7,11.8-1.3,16.3-8.8
		c4.5-7.6,4.5-15.9,0-18.6C125.2,233.3,117.9,237.2,113.4,244.8z"/>
	
		<radialGradient id="SVGID_30_" cx="109.318" cy="193.5795" r="12.5113" gradientTransform="matrix(0.9612 0 0 1.3668 10.3432 -28.4951)" gradientUnits="userSpaceOnUse">
		<stop  offset="0.4835" style="stop-color:#FFFFFF"/>
		<stop  offset="0.5509" style="stop-color:#FFFDFB"/>
		<stop  offset="0.619" style="stop-color:#FFF5EF"/>
		<stop  offset="0.6876" style="stop-color:#FFE9DA"/>
		<stop  offset="0.7565" style="stop-color:#FFD7BE"/>
		<stop  offset="0.8257" style="stop-color:#FFC199"/>
		<stop  offset="0.895" style="stop-color:#FEA56C"/>
		<stop  offset="0.9633" style="stop-color:#FE8538"/>
		<stop  offset="1" style="stop-color:#FE7219"/>
	</radialGradient>
	<path opacity="0.2" fill="url(#SVGID_30_)" d="M99.2,243.2c0,0,12.7-27.8,32.5-5.5C131.7,237.7,110.7,231.7,99.2,243.2z"/>
	<g opacity="0.45">
		<path fill="#FFFFFF" d="M128.8,232.4c0,0,0.8,2.4,2,2.9s6.5,9.2,5.7,14.7c0,0,0.1-0.3,0.2-0.7c0.1-0.8,0.2-1.7,0.2-2.6
			c0-8.5-5.2-15.9-12.7-18.9C125.4,228.8,128.7,231.6,128.8,232.4z"/>
	</g>
	<g opacity="0.32">
		
			<radialGradient id="SVGID_31_" cx="160.2086" cy="454.1749" r="3.6577" gradientTransform="matrix(0.6553 0.2588 -0.141 0.3569 80.3543 27.6904)" gradientUnits="userSpaceOnUse">
			<stop  offset="0.4835" style="stop-color:#FFFFFF"/>
			<stop  offset="0.5509" style="stop-color:#FFFDFB"/>
			<stop  offset="0.619" style="stop-color:#FFF5EF"/>
			<stop  offset="0.6876" style="stop-color:#FFE9DA"/>
			<stop  offset="0.7565" style="stop-color:#FFD7BE"/>
			<stop  offset="0.8257" style="stop-color:#FFC199"/>
			<stop  offset="0.895" style="stop-color:#FEA56C"/>
			<stop  offset="0.9633" style="stop-color:#FE8538"/>
			<stop  offset="1" style="stop-color:#FE7219"/>
		</radialGradient>
		<path fill="url(#SVGID_31_)" d="M123.7,232.2c-0.3,0.7-1.6,0.9-2.9,0.3c-1.3-0.5-2.2-1.5-1.9-2.2c0.3-0.7,1.6-0.9,2.9-0.3
			C123.1,230.5,124,231.5,123.7,232.2z"/>
		
			<radialGradient id="SVGID_32_" cx="248.6452" cy="450.4635" r="2.3729" gradientTransform="matrix(0.5444 0.4472 -0.2436 0.2965 100.1037 -10.969)" gradientUnits="userSpaceOnUse">
			<stop  offset="0.4835" style="stop-color:#FFFFFF"/>
			<stop  offset="0.5509" style="stop-color:#FFFDFB"/>
			<stop  offset="0.619" style="stop-color:#FFF5EF"/>
			<stop  offset="0.6876" style="stop-color:#FFE9DA"/>
			<stop  offset="0.7565" style="stop-color:#FFD7BE"/>
			<stop  offset="0.8257" style="stop-color:#FFC199"/>
			<stop  offset="0.895" style="stop-color:#FEA56C"/>
			<stop  offset="0.9633" style="stop-color:#FE8538"/>
			<stop  offset="1" style="stop-color:#FE7219"/>
		</radialGradient>
		<path fill="url(#SVGID_32_)" d="M127,234.9c-0.3,0.4-1.2,0.2-1.9-0.4c-0.7-0.6-1.1-1.4-0.7-1.8c0.3-0.4,1.2-0.2,1.9,0.4
			C127,233.7,127.4,234.5,127,234.9z"/>
		
			<radialGradient id="SVGID_33_" cx="253.698" cy="450.5589" r="1.2221" gradientTransform="matrix(0.5444 0.4472 -0.2436 0.2965 100.1037 -10.969)" gradientUnits="userSpaceOnUse">
			<stop  offset="0.4835" style="stop-color:#FFFFFF"/>
			<stop  offset="0.5509" style="stop-color:#FFFDFB"/>
			<stop  offset="0.619" style="stop-color:#FFF5EF"/>
			<stop  offset="0.6876" style="stop-color:#FFE9DA"/>
			<stop  offset="0.7565" style="stop-color:#FFD7BE"/>
			<stop  offset="0.8257" style="stop-color:#FFC199"/>
			<stop  offset="0.895" style="stop-color:#FEA56C"/>
			<stop  offset="0.9633" style="stop-color:#FE8538"/>
			<stop  offset="1" style="stop-color:#FE7219"/>
		</radialGradient>
		<path fill="url(#SVGID_33_)" d="M129.1,236.6c-0.2,0.2-0.6,0.1-1-0.2c-0.4-0.3-0.5-0.7-0.4-0.9c0.2-0.2,0.6-0.1,1,0.2
			C129.1,236,129.3,236.4,129.1,236.6z"/>
	</g>
	<g opacity="0.32">
		
			<radialGradient id="SVGID_34_" cx="188.7272" cy="314.7805" r="2.2532" gradientTransform="matrix(0.3361 0.6192 0.3373 -0.183 -68.6739 196.8813)" gradientUnits="userSpaceOnUse">
			<stop  offset="0.4835" style="stop-color:#FFFFFF"/>
			<stop  offset="0.5509" style="stop-color:#FFFDFB"/>
			<stop  offset="0.619" style="stop-color:#FFF5EF"/>
			<stop  offset="0.6876" style="stop-color:#FFE9DA"/>
			<stop  offset="0.7565" style="stop-color:#FFD7BE"/>
			<stop  offset="0.8257" style="stop-color:#FFC199"/>
			<stop  offset="0.895" style="stop-color:#FEA56C"/>
			<stop  offset="0.9633" style="stop-color:#FE8538"/>
			<stop  offset="1" style="stop-color:#FE7219"/>
		</radialGradient>
		<path fill="url(#SVGID_34_)" d="M101.7,257.5c0.4-0.2,0.4-1,0-1.8c-0.4-0.8-1.1-1.2-1.5-1c-0.4,0.2-0.4,1,0,1.8
			C100.6,257.3,101.3,257.8,101.7,257.5z"/>
		
			<radialGradient id="SVGID_35_" cx="250.6402" cy="303.7576" r="1.4618" gradientTransform="matrix(0.5097 0.4864 0.2649 -0.2776 -105.4011 221.0701)" gradientUnits="userSpaceOnUse">
			<stop  offset="0.4835" style="stop-color:#FFFFFF"/>
			<stop  offset="0.5509" style="stop-color:#FFFDFB"/>
			<stop  offset="0.619" style="stop-color:#FFF5EF"/>
			<stop  offset="0.6876" style="stop-color:#FFE9DA"/>
			<stop  offset="0.7565" style="stop-color:#FFD7BE"/>
			<stop  offset="0.8257" style="stop-color:#FFC199"/>
			<stop  offset="0.895" style="stop-color:#FEA56C"/>
			<stop  offset="0.9633" style="stop-color:#FE8538"/>
			<stop  offset="1" style="stop-color:#FE7219"/>
		</radialGradient>
		<path fill="url(#SVGID_35_)" d="M103.6,259.4c0.2-0.2,0-0.7-0.4-1.1c-0.4-0.4-0.9-0.5-1.1-0.3c-0.2,0.2,0,0.7,0.4,1.1
			C102.8,259.5,103.4,259.6,103.6,259.4z"/>
		
			<radialGradient id="SVGID_36_" cx="253.7527" cy="303.8162" r="0.7527" gradientTransform="matrix(0.5097 0.4864 0.2649 -0.2776 -105.4011 221.0701)" gradientUnits="userSpaceOnUse">
			<stop  offset="0.4835" style="stop-color:#FFFFFF"/>
			<stop  offset="0.5509" style="stop-color:#FFFDFB"/>
			<stop  offset="0.619" style="stop-color:#FFF5EF"/>
			<stop  offset="0.6876" style="stop-color:#FFE9DA"/>
			<stop  offset="0.7565" style="stop-color:#FFD7BE"/>
			<stop  offset="0.8257" style="stop-color:#FFC199"/>
			<stop  offset="0.895" style="stop-color:#FEA56C"/>
			<stop  offset="0.9633" style="stop-color:#FE8538"/>
			<stop  offset="1" style="stop-color:#FE7219"/>
		</radialGradient>
		<path fill="url(#SVGID_36_)" d="M104.8,260.5c0.1-0.1,0-0.4-0.2-0.6c-0.2-0.2-0.5-0.3-0.6-0.2c-0.1,0.1,0,0.4,0.2,0.6
			C104.4,260.6,104.7,260.6,104.8,260.5z"/>
	</g>
</g>
<g>
	<radialGradient id="SVGID_37_" cx="67.5764" cy="294.2074" r="13.6055" gradientUnits="userSpaceOnUse">
		<stop  offset="0.4835" style="stop-color:#FFFFFF;stop-opacity:0"/>
		<stop  offset="0.5509" style="stop-color:#FFFDFB;stop-opacity:0.1304"/>
		<stop  offset="0.619" style="stop-color:#FFF5EF;stop-opacity:0.2623"/>
		<stop  offset="0.6876" style="stop-color:#FFE9DA;stop-opacity:0.3952"/>
		<stop  offset="0.7565" style="stop-color:#FFD7BE;stop-opacity:0.5286"/>
		<stop  offset="0.8257" style="stop-color:#FFC199;stop-opacity:0.6624"/>
		<stop  offset="0.895" style="stop-color:#FEA56C;stop-opacity:0.7968"/>
		<stop  offset="0.9633" style="stop-color:#FE8538;stop-opacity:0.9289"/>
		<stop  offset="1" style="stop-color:#FE7219"/>
	</radialGradient>
	<circle fill="url(#SVGID_37_)" cx="67.6" cy="294.2" r="13.6"/>
	<g opacity="0.3">
		<path fill="#FFFFFF" d="M61.6,284.8l-2.3-1.3c-3.1,2.5-5.1,6.3-5.1,10.6c0,2,0.4,3.9,1.2,5.7C54.5,288.2,61.6,284.8,61.6,284.8z"
			/>
	</g>
	
		<radialGradient id="SVGID_38_" cx="103.1397" cy="264.9725" r="11.6058" gradientTransform="matrix(-0.4678 -0.2793 -0.4695 0.7864 243.6557 116.7053)" gradientUnits="userSpaceOnUse">
		<stop  offset="0.4835" style="stop-color:#FFFFFF"/>
		<stop  offset="0.5509" style="stop-color:#FFFDFB"/>
		<stop  offset="0.619" style="stop-color:#FFF5EF"/>
		<stop  offset="0.6876" style="stop-color:#FFE9DA"/>
		<stop  offset="0.7565" style="stop-color:#FFD7BE"/>
		<stop  offset="0.8257" style="stop-color:#FFC199"/>
		<stop  offset="0.895" style="stop-color:#FEA56C"/>
		<stop  offset="0.9633" style="stop-color:#FE8538"/>
		<stop  offset="1" style="stop-color:#FE7219"/>
	</radialGradient>
	<path opacity="7.000000e-02" fill="url(#SVGID_38_)" d="M65.6,293c-3,5-3,10.6,0,12.4c3,1.8,7.9-0.8,10.9-5.9c3-5,3-10.6,0-12.4
		C73.5,285.4,68.6,288,65.6,293z"/>
	
		<radialGradient id="SVGID_39_" cx="58.8493" cy="230.9869" r="8.3392" gradientTransform="matrix(0.9612 0 0 1.3668 10.3432 -28.4951)" gradientUnits="userSpaceOnUse">
		<stop  offset="0.4835" style="stop-color:#FFFFFF"/>
		<stop  offset="0.5509" style="stop-color:#FFFDFB"/>
		<stop  offset="0.619" style="stop-color:#FFF5EF"/>
		<stop  offset="0.6876" style="stop-color:#FFE9DA"/>
		<stop  offset="0.7565" style="stop-color:#FFD7BE"/>
		<stop  offset="0.8257" style="stop-color:#FFC199"/>
		<stop  offset="0.895" style="stop-color:#FEA56C"/>
		<stop  offset="0.9633" style="stop-color:#FE8538"/>
		<stop  offset="1" style="stop-color:#FE7219"/>
	</radialGradient>
	<path opacity="0.2" fill="url(#SVGID_39_)" d="M56.1,291.9c0,0,8.5-18.5,21.7-3.7C77.7,288.3,63.8,284.3,56.1,291.9z"/>
	<g opacity="0.45">
		<path fill="#FFFFFF" d="M75.8,284.8c0,0,0.5,1.6,1.3,1.9c0.8,0.3,4.4,6.1,3.8,9.8c0,0,0.1-0.2,0.1-0.5c0.1-0.6,0.1-1.1,0.1-1.7
			c0-5.7-3.5-10.6-8.5-12.6C73.5,282.4,75.8,284.2,75.8,284.8z"/>
	</g>
	<g opacity="0.32">
		
			<radialGradient id="SVGID_40_" cx="121.0896" cy="630.3226" r="2.438" gradientTransform="matrix(0.6553 0.2588 -0.141 0.3569 80.3543 27.6904)" gradientUnits="userSpaceOnUse">
			<stop  offset="0.4835" style="stop-color:#FFFFFF"/>
			<stop  offset="0.5509" style="stop-color:#FFFDFB"/>
			<stop  offset="0.619" style="stop-color:#FFF5EF"/>
			<stop  offset="0.6876" style="stop-color:#FFE9DA"/>
			<stop  offset="0.7565" style="stop-color:#FFD7BE"/>
			<stop  offset="0.8257" style="stop-color:#FFC199"/>
			<stop  offset="0.895" style="stop-color:#FEA56C"/>
			<stop  offset="0.9633" style="stop-color:#FE8538"/>
			<stop  offset="1" style="stop-color:#FE7219"/>
		</radialGradient>
		<path fill="url(#SVGID_40_)" d="M72.4,284.6c-0.2,0.5-1.1,0.6-2,0.2c-0.9-0.4-1.5-1-1.3-1.5c0.2-0.5,1.1-0.6,2-0.2
			C72.1,283.5,72.6,284.2,72.4,284.6z"/>
		
			<radialGradient id="SVGID_41_" cx="238.4319" cy="640.8969" r="1.5816" gradientTransform="matrix(0.5444 0.4472 -0.2436 0.2965 100.1037 -10.969)" gradientUnits="userSpaceOnUse">
			<stop  offset="0.4835" style="stop-color:#FFFFFF"/>
			<stop  offset="0.5509" style="stop-color:#FFFDFB"/>
			<stop  offset="0.619" style="stop-color:#FFF5EF"/>
			<stop  offset="0.6876" style="stop-color:#FFE9DA"/>
			<stop  offset="0.7565" style="stop-color:#FFD7BE"/>
			<stop  offset="0.8257" style="stop-color:#FFC199"/>
			<stop  offset="0.895" style="stop-color:#FEA56C"/>
			<stop  offset="0.9633" style="stop-color:#FE8538"/>
			<stop  offset="1" style="stop-color:#FE7219"/>
		</radialGradient>
		<path fill="url(#SVGID_41_)" d="M74.7,286.4c-0.2,0.3-0.8,0.1-1.3-0.3c-0.5-0.4-0.7-0.9-0.5-1.2c0.2-0.3,0.8-0.1,1.3,0.3
			C74.6,285.6,74.9,286.1,74.7,286.4z"/>
		
			<radialGradient id="SVGID_42_" cx="241.7997" cy="640.9605" r="0.8146" gradientTransform="matrix(0.5444 0.4472 -0.2436 0.2965 100.1037 -10.969)" gradientUnits="userSpaceOnUse">
			<stop  offset="0.4835" style="stop-color:#FFFFFF"/>
			<stop  offset="0.5509" style="stop-color:#FFFDFB"/>
			<stop  offset="0.619" style="stop-color:#FFF5EF"/>
			<stop  offset="0.6876" style="stop-color:#FFE9DA"/>
			<stop  offset="0.7565" style="stop-color:#FFD7BE"/>
			<stop  offset="0.8257" style="stop-color:#FFC199"/>
			<stop  offset="0.895" style="stop-color:#FEA56C"/>
			<stop  offset="0.9633" style="stop-color:#FE8538"/>
			<stop  offset="1" style="stop-color:#FE7219"/>
		</radialGradient>
		<path fill="url(#SVGID_42_)" d="M76.1,287.6c-0.1,0.1-0.4,0.1-0.6-0.1c-0.2-0.2-0.4-0.5-0.3-0.6c0.1-0.1,0.4-0.1,0.6,0.1
			C76,287.2,76.2,287.4,76.1,287.6z"/>
	</g>
	<g opacity="0.32">
		
			<radialGradient id="SVGID_43_" cx="214.6088" cy="159.4932" r="1.5018" gradientTransform="matrix(0.3361 0.6192 0.3373 -0.183 -68.6739 196.8813)" gradientUnits="userSpaceOnUse">
			<stop  offset="0.4835" style="stop-color:#FFFFFF"/>
			<stop  offset="0.5509" style="stop-color:#FFFDFB"/>
			<stop  offset="0.619" style="stop-color:#FFF5EF"/>
			<stop  offset="0.6876" style="stop-color:#FFE9DA"/>
			<stop  offset="0.7565" style="stop-color:#FFD7BE"/>
			<stop  offset="0.8257" style="stop-color:#FFC199"/>
			<stop  offset="0.895" style="stop-color:#FEA56C"/>
			<stop  offset="0.9633" style="stop-color:#FE8538"/>
			<stop  offset="1" style="stop-color:#FE7219"/>
		</radialGradient>
		<path fill="url(#SVGID_43_)" d="M57.8,301.5c0.3-0.1,0.3-0.7,0-1.2c-0.3-0.5-0.7-0.8-1-0.7c-0.3,0.2-0.3,0.7,0,1.2
			C57,301.4,57.5,301.7,57.8,301.5z"/>
		
			<radialGradient id="SVGID_44_" cx="247.868" cy="141.8308" r="0.9744" gradientTransform="matrix(0.5097 0.4864 0.2649 -0.2776 -105.4011 221.0701)" gradientUnits="userSpaceOnUse">
			<stop  offset="0.4835" style="stop-color:#FFFFFF"/>
			<stop  offset="0.5509" style="stop-color:#FFFDFB"/>
			<stop  offset="0.619" style="stop-color:#FFF5EF"/>
			<stop  offset="0.6876" style="stop-color:#FFE9DA"/>
			<stop  offset="0.7565" style="stop-color:#FFD7BE"/>
			<stop  offset="0.8257" style="stop-color:#FFC199"/>
			<stop  offset="0.895" style="stop-color:#FEA56C"/>
			<stop  offset="0.9633" style="stop-color:#FE8538"/>
			<stop  offset="1" style="stop-color:#FE7219"/>
		</radialGradient>
		<path fill="url(#SVGID_44_)" d="M59,302.7c0.1-0.1,0-0.5-0.2-0.7c-0.3-0.3-0.6-0.4-0.8-0.2c-0.1,0.1,0,0.5,0.2,0.7
			C58.5,302.8,58.9,302.9,59,302.7z"/>
		
			<radialGradient id="SVGID_45_" cx="249.9426" cy="141.8699" r="0.5017" gradientTransform="matrix(0.5097 0.4864 0.2649 -0.2776 -105.4011 221.0701)" gradientUnits="userSpaceOnUse">
			<stop  offset="0.4835" style="stop-color:#FFFFFF"/>
			<stop  offset="0.5509" style="stop-color:#FFFDFB"/>
			<stop  offset="0.619" style="stop-color:#FFF5EF"/>
			<stop  offset="0.6876" style="stop-color:#FFE9DA"/>
			<stop  offset="0.7565" style="stop-color:#FFD7BE"/>
			<stop  offset="0.8257" style="stop-color:#FFC199"/>
			<stop  offset="0.895" style="stop-color:#FEA56C"/>
			<stop  offset="0.9633" style="stop-color:#FE8538"/>
			<stop  offset="1" style="stop-color:#FE7219"/>
		</radialGradient>
		<path fill="url(#SVGID_45_)" d="M59.8,303.5c0.1-0.1,0-0.2-0.1-0.4c-0.1-0.1-0.3-0.2-0.4-0.1c-0.1,0.1,0,0.2,0.1,0.4
			C59.6,303.5,59.8,303.6,59.8,303.5z"/>
	</g>
</g>
</svg>
