<?xml version="1.0" encoding="utf-8"?>
<!-- Generator: Adobe Illustrator 17.1.0, SVG Export Plug-In . SVG Version: 6.00 Build 0)  -->
<!DOCTYPE svg PUBLIC "-//W3C//DTD SVG 1.1//EN" "http://www.w3.org/Graphics/SVG/1.1/DTD/svg11.dtd">
<svg version="1.1" id="Layer_1" xmlns="http://www.w3.org/2000/svg" xmlns:xlink="http://www.w3.org/1999/xlink" x="0px" y="0px"
	 viewBox="0 0 50.6 60" enable-background="new 0 0 50.6 60" xml:space="preserve">
<path id="path6712" fill="#404041" d="M39.7,10.2c-1.1,1.1-2.6,1.5-4.3,1.5c-2.1,0-4-0.9-5.1-2.5c-1.1,1.7-3,2.5-5.2,2.5
	c-2.1,0-4-0.9-5.1-2.5c-1.1,1.7-3,2.5-5.2,2.5c-1.6,0-3-0.4-4.1-1.3L10,4.5c1.1,1.5,2.9,2.5,4.9,2.5c2.2,0,4.1-1.1,5.2-2.8
	c1.1,1.6,3,2.8,5.1,2.8c2.1,0,4.1-1.1,5.2-2.8c1.1,1.6,3,2.8,5.1,2.8c2.2,0,4.1-1.1,5.1-2.8L39.7,10.2z"/>
<path id="path6714" fill="#404041" d="M41.3,60.1L50.6,0l-6.3,0.1l-8.5,53.7H14.8L6.3,0.1L0,0l9.3,60.1H41.3z"/>
</svg>
