<svg xmlns="http://www.w3.org/2000/svg" viewBox="0 0 122.5 118" enable-background="new 0 0 122.5 118"><radialGradient id="a" cx="60.431" cy="58.846" r="47.594" gradientUnits="userSpaceOnUse"><stop offset=".483" stop-color="#fff" stop-opacity="0"/><stop offset=".551" stop-color="#FFFDFB" stop-opacity=".13"/><stop offset=".619" stop-color="#FFF5EF" stop-opacity=".262"/><stop offset=".688" stop-color="#FFE9DA" stop-opacity=".395"/><stop offset=".756" stop-color="#FFD7BE" stop-opacity=".529"/><stop offset=".826" stop-color="#FFC199" stop-opacity=".662"/><stop offset=".895" stop-color="#FEA56C" stop-opacity=".797"/><stop offset=".963" stop-color="#FE8538" stop-opacity=".929"/><stop offset="1" stop-color="#FE7219"/></radialGradient><circle fill="url(#a)" cx="60.4" cy="58.8" r="47.6"/><path fill="#fff" d="M39.6 26.1l-8.2-4.4c-10.9 8.7-17.9 22.1-17.9 37.2 0 7.1 1.5 13.8 4.3 19.8-3.1-40.9 21.8-52.6 21.8-52.6z" opacity=".3"/><radialGradient id="b" cx="208.447" cy="41.128" r="40.599" gradientTransform="matrix(-.468 -.279 -.469 .786 189.236 91.947)" gradientUnits="userSpaceOnUse"><stop offset=".483" stop-color="#fff"/><stop offset=".551" stop-color="#FFFDFB"/><stop offset=".619" stop-color="#FFF5EF"/><stop offset=".688" stop-color="#FFE9DA"/><stop offset=".756" stop-color="#FFD7BE"/><stop offset=".826" stop-color="#FFC199"/><stop offset=".895" stop-color="#FEA56C"/><stop offset=".963" stop-color="#FE8538"/><stop offset="1" stop-color="#FE7219"/></radialGradient><path opacity=".07" fill="url(#b)" d="M53.4 54.7c-10.5 17.6-10.6 37-.1 43.3 10.5 6.3 27.5-3 38.1-20.6 10.5-17.6 10.6-37 .1-43.3-10.5-6.2-27.5 3-38.1 20.6z"/><radialGradient id="c" cx="49.681" cy="14.907" r="29.172" gradientTransform="matrix(.961 0 0 1.367 10.343 14.02)" gradientUnits="userSpaceOnUse"><stop offset=".483" stop-color="#fff"/><stop offset=".551" stop-color="#FFFDFB"/><stop offset=".619" stop-color="#FFF5EF"/><stop offset=".688" stop-color="#FFE9DA"/><stop offset=".756" stop-color="#FFD7BE"/><stop offset=".826" stop-color="#FFC199"/><stop offset=".895" stop-color="#FEA56C"/><stop offset=".963" stop-color="#FE8538"/><stop offset="1" stop-color="#FE7219"/></radialGradient><path opacity=".2" fill="url(#c)" d="M20.2 50.9s29.6-64.9 75.8-12.9c0 .1-48.9-13.7-75.8 12.9z"/><path fill="#fff" d="M89.3 25.8s1.8 5.7 4.7 6.7c2.8 1 15.3 21.5 13.2 34.2 0 0 .2-.6.5-1.7.2-2 .4-3.9.4-6 0-19.9-12.2-37-29.6-44.1 2.8 2.5 10.6 9 10.8 10.9z" opacity=".45"/><g opacity=".32"><radialGradient id="d" cx="46.776" cy="162.094" r="8.528" gradientTransform="matrix(.655 .259 -.141 .357 64.011 -46.851)" gradientUnits="userSpaceOnUse"><stop offset=".483" stop-color="#fff"/><stop offset=".551" stop-color="#FFFDFB"/><stop offset=".619" stop-color="#FFF5EF"/><stop offset=".688" stop-color="#FFE9DA"/><stop offset=".756" stop-color="#FFD7BE"/><stop offset=".826" stop-color="#FFC199"/><stop offset=".895" stop-color="#FEA56C"/><stop offset=".963" stop-color="#FE8538"/><stop offset="1" stop-color="#FE7219"/></radialGradient><path fill="url(#d)" d="M77.5 25.3c-.7 1.7-3.7 2-6.8.8-3.1-1.2-5.1-3.6-4.5-5.2.7-1.7 3.7-2 6.8-.8 3.1 1.2 5.1 3.6 4.5 5.2z"/><radialGradient id="e" cx="120.782" cy="227.744" r="5.533" gradientTransform="matrix(.544 .447 -.244 .296 71.868 -92.511)" gradientUnits="userSpaceOnUse"><stop offset=".483" stop-color="#fff"/><stop offset=".551" stop-color="#FFFDFB"/><stop offset=".619" stop-color="#FFF5EF"/><stop offset=".688" stop-color="#FFE9DA"/><stop offset=".756" stop-color="#FFD7BE"/><stop offset=".826" stop-color="#FFC199"/><stop offset=".895" stop-color="#FEA56C"/><stop offset=".963" stop-color="#FE8538"/><stop offset="1" stop-color="#FE7219"/></radialGradient><path fill="url(#e)" d="M85.2 31.5c-.7.9-2.7.5-4.4-.9-1.7-1.4-2.5-3.2-1.7-4.1.7-.9 2.7-.5 4.4.9 1.7 1.4 2.4 3.2 1.7 4.1z"/><radialGradient id="f" cx="132.564" cy="227.966" r="2.85" gradientTransform="matrix(.544 .447 -.244 .296 71.868 -92.511)" gradientUnits="userSpaceOnUse"><stop offset=".483" stop-color="#fff"/><stop offset=".551" stop-color="#FFFDFB"/><stop offset=".619" stop-color="#FFF5EF"/><stop offset=".688" stop-color="#FFE9DA"/><stop offset=".756" stop-color="#FFD7BE"/><stop offset=".826" stop-color="#FFC199"/><stop offset=".895" stop-color="#FEA56C"/><stop offset=".963" stop-color="#FE8538"/><stop offset="1" stop-color="#FE7219"/></radialGradient><path fill="url(#f)" d="M90.1 35.7c-.4.5-1.4.3-2.3-.5-.9-.7-1.3-1.7-.9-2.1.4-.5 1.4-.3 2.3.5.9.6 1.3 1.6.9 2.1z"/></g><g opacity=".32"><radialGradient id="g" cx="63.15" cy="96.861" r="5.254" gradientTransform="matrix(.336 .619 .337 -.183 -29.578 59.761)" gradientUnits="userSpaceOnUse"><stop offset=".483" stop-color="#fff"/><stop offset=".551" stop-color="#FFFDFB"/><stop offset=".619" stop-color="#FFF5EF"/><stop offset=".688" stop-color="#FFE9DA"/><stop offset=".756" stop-color="#FFD7BE"/><stop offset=".826" stop-color="#FFC199"/><stop offset=".895" stop-color="#FEA56C"/><stop offset=".963" stop-color="#FE8538"/><stop offset="1" stop-color="#FE7219"/></radialGradient><path fill="url(#g)" d="M26.1 84.4c1-.5 1-2.4 0-4.2-1-1.8-2.6-2.9-3.5-2.3-1 .5-1 2.4 0 4.2 1 1.8 2.5 2.9 3.5 2.3z"/><radialGradient id="h" cx="119.933" cy="159.589" r="3.409" gradientTransform="matrix(.51 .486 .265 -.278 -74.697 72.985)" gradientUnits="userSpaceOnUse"><stop offset=".483" stop-color="#fff"/><stop offset=".551" stop-color="#FFFDFB"/><stop offset=".619" stop-color="#FFF5EF"/><stop offset=".688" stop-color="#FFE9DA"/><stop offset=".756" stop-color="#FFD7BE"/><stop offset=".826" stop-color="#FFC199"/><stop offset=".895" stop-color="#FEA56C"/><stop offset=".963" stop-color="#FE8538"/><stop offset="1" stop-color="#FE7219"/></radialGradient><path fill="url(#h)" d="M30.5 88.7c.5-.5.1-1.7-.9-2.6-1-.9-2.2-1.3-2.6-.7-.5.5-.1 1.7.9 2.6.9.9 2.1 1.2 2.6.7z"/><radialGradient id="i" cx="127.191" cy="159.725" r="1.755" gradientTransform="matrix(.51 .486 .265 -.278 -74.697 72.985)" gradientUnits="userSpaceOnUse"><stop offset=".483" stop-color="#fff"/><stop offset=".551" stop-color="#FFFDFB"/><stop offset=".619" stop-color="#FFF5EF"/><stop offset=".688" stop-color="#FFE9DA"/><stop offset=".756" stop-color="#FFD7BE"/><stop offset=".826" stop-color="#FFC199"/><stop offset=".895" stop-color="#FEA56C"/><stop offset=".963" stop-color="#FE8538"/><stop offset="1" stop-color="#FE7219"/></radialGradient><path fill="url(#i)" d="M33.3 91.4c.3-.3.1-.9-.4-1.3-.5-.5-1.1-.6-1.4-.4-.3.3-.1.9.4 1.3.6.5 1.2.6 1.4.4z"/></g></svg>