<svg xmlns="http://www.w3.org/2000/svg" viewBox="0 0 137.9 60" enable-background="new 0 0 137.9 60"><g fill="#404041"><path d="M60.6 13.8l1.8-6.4h3.1c.7 0 1.4-.9 1.3-1.7 0-.8-.6-1.7-1.4-1.7h-10.2c-.7 0-1.4.9-1.3 1.7 0 .7.6 1.7 1.4 1.7h4.4l-1.5 4.5-28.6.1.5-2.1c.1-.4 0-.6-.3-.9-.3-.3-.6-.4-1.1-.4h-8.5c-.7 0-1.4.4-1.4 1.1 0 .7.6 1.1 1.4 1.1h6.8l-.5 2.7v.1l-.8 4-1.6 4.7c-1.6-.4-3.3-.7-5.1-.7-10.5.3-19 8.9-19 19.5s8.7 19.1 19.2 19.1c10.6 0 19.1-8.7 19.1-19.2 0-7.8-4.8-14.6-11.6-17.5l.9-2.7 22.4 22.8s.1 0 .1.1l.1.1.1.1s.1 0 .1.1c.1 0 .1 0 .2.1h.5l3.8-.3c1.4 9.2 9.4 16.3 19 16.3 10.6-.1 19.1-8.7 19.1-19.2-.1-10.6-8.7-19.1-19.2-19.1-2.8 0-5.5.6-7.8 1.7l-2.2-4h29.3v-1.6h-30.3l-2.2-4.1zm-25.5 27.1c0 8.8-7.1 16-15.9 16.1-8.8 0-16-7.1-16.1-15.9 0-8.8 7.1-16 15.9-16.1 1.4 0 2.7.2 4 .5l-5.2 15.2c-.2.7.1 1.5.8 1.7.1.1.3.1.4.1.6 0 1.1-.4 1.3-.9l5.2-15.2c5.7 2.5 9.6 8 9.6 14.5zm15.2-1l-21.8-22.2.5-2.3 28.4-.1-7.1 24.6zm4.5 1l-1.9.2 6.8-23.6 4 7.2c-5.5 3.5-8.9 9.4-8.9 16.2zm18.9-16c8.8 0 16 7.1 16.1 15.9 0 8.8-7.1 16-15.9 16.1-8 0-14.6-5.8-15.8-13.4l15.9-1.3c.5 0 .9-.3 1.1-.7.2-.4.2-.9 0-1.3l-7.6-14c1.8-.8 4-1.3 6.2-1.3zm-2.1 14.8l-13.8 1.1c0-5.5 2.9-10.4 7.2-13.2l6.6 12.1zM69 15.7h23.9v-15.8h-23.9v15.8zm1.9-1l7-6.5 3.1 2.6 3.1-2.6 7 6.5h-20.2zm21.1-.4l-7.2-6.8 7.2-6v12.8zm-.8-13.4l-10.2 8.7-10.3-8.7h20.5zm-21.2.6l7.2 6.1-7.2 6.7v-12.8z"/></g><path fill="#404041" d="M100.1 35.6h25.3v1.3h-25.3zM100.1 44.2h37.7v1.3h-37.7z"/></svg>