<svg xmlns="http://www.w3.org/2000/svg" viewBox="0 0 197 318.9" enable-background="new 0 0 197 318.9"><radialGradient id="a" cx="47.542" cy="67.863" r="33.125" gradientUnits="userSpaceOnUse"><stop offset=".483" stop-color="#fff" stop-opacity="0"/><stop offset=".551" stop-color="#FFFDFB" stop-opacity=".13"/><stop offset=".619" stop-color="#FFF5EF" stop-opacity=".262"/><stop offset=".688" stop-color="#FFE9DA" stop-opacity=".395"/><stop offset=".756" stop-color="#FFD7BE" stop-opacity=".529"/><stop offset=".826" stop-color="#FFC199" stop-opacity=".662"/><stop offset=".895" stop-color="#FEA56C" stop-opacity=".797"/><stop offset=".963" stop-color="#FE8538" stop-opacity=".929"/><stop offset="1" stop-color="#FE7219"/></radialGradient><circle fill="url(#a)" cx="47.5" cy="67.9" r="33.1"/><path fill="#fff" d="M33 45.1l-5.7-3.1c-7.6 6.1-12.5 15.4-12.5 25.9 0 4.9 1.1 9.6 3 13.8-2.1-28.5 15.2-36.6 15.2-36.6z" opacity=".3"/><radialGradient id="b" cx="337.138" cy="64.024" r="28.256" gradientTransform="matrix(-.468 -.279 -.469 .786 243.656 116.705)" gradientUnits="userSpaceOnUse"><stop offset=".483" stop-color="#fff"/><stop offset=".551" stop-color="#FFFDFB"/><stop offset=".619" stop-color="#FFF5EF"/><stop offset=".688" stop-color="#FFE9DA"/><stop offset=".756" stop-color="#FFD7BE"/><stop offset=".826" stop-color="#FFC199"/><stop offset=".895" stop-color="#FEA56C"/><stop offset=".963" stop-color="#FE8538"/><stop offset="1" stop-color="#FE7219"/></radialGradient><path opacity=".07" fill="url(#b)" d="M42.7 65c-7.3 12.3-7.4 25.8 0 30.1 7.3 4.4 19.2-2.1 26.5-14.3 7.3-12.3 7.3-25.8 0-30.1-7.3-4.4-19.2 2-26.5 14.3z"/><radialGradient id="c" cx="37.011" cy="58.048" r="20.303" gradientTransform="matrix(.961 0 0 1.367 10.343 -28.495)" gradientUnits="userSpaceOnUse"><stop offset=".483" stop-color="#fff"/><stop offset=".551" stop-color="#FFFDFB"/><stop offset=".619" stop-color="#FFF5EF"/><stop offset=".688" stop-color="#FFE9DA"/><stop offset=".756" stop-color="#FFD7BE"/><stop offset=".826" stop-color="#FFC199"/><stop offset=".895" stop-color="#FEA56C"/><stop offset=".963" stop-color="#FE8538"/><stop offset="1" stop-color="#FE7219"/></radialGradient><path opacity=".2" fill="url(#c)" d="M19.5 62.3s20.6-45.1 52.8-9c0 .1-34-9.5-52.8 9z"/><path fill="#fff" d="M67.6 44.9s1.3 4 3.2 4.7c2 .7 10.6 14.9 9.2 23.8 0 0 .2-.4.4-1.2.2-1.4.3-2.7.3-4.1 0-13.9-8.5-25.7-20.6-30.7 2 1.6 7.4 6.2 7.5 7.5z" opacity=".45"/><g opacity=".32"><radialGradient id="d" cx="-24.883" cy="60.906" r="5.936" gradientTransform="matrix(.655 .259 -.141 .357 80.354 27.69)" gradientUnits="userSpaceOnUse"><stop offset=".483" stop-color="#fff"/><stop offset=".551" stop-color="#FFFDFB"/><stop offset=".619" stop-color="#FFF5EF"/><stop offset=".688" stop-color="#FFE9DA"/><stop offset=".756" stop-color="#FFD7BE"/><stop offset=".826" stop-color="#FFC199"/><stop offset=".895" stop-color="#FEA56C"/><stop offset=".963" stop-color="#FE8538"/><stop offset="1" stop-color="#FE7219"/></radialGradient><path fill="url(#d)" d="M59.4 44.5c-.5 1.2-2.6 1.4-4.8.5-2.2-.9-3.6-2.5-3.1-3.6.5-1.2 2.6-1.4 4.8-.5 2.2.9 3.6 2.5 3.1 3.6z"/><radialGradient id="e" cx="11.261" cy="178.898" r="3.851" gradientTransform="matrix(.544 .447 -.244 .296 100.104 -10.969)" gradientUnits="userSpaceOnUse"><stop offset=".483" stop-color="#fff"/><stop offset=".551" stop-color="#FFFDFB"/><stop offset=".619" stop-color="#FFF5EF"/><stop offset=".688" stop-color="#FFE9DA"/><stop offset=".756" stop-color="#FFD7BE"/><stop offset=".826" stop-color="#FFC199"/><stop offset=".895" stop-color="#FEA56C"/><stop offset=".963" stop-color="#FE8538"/><stop offset="1" stop-color="#FE7219"/></radialGradient><path fill="url(#e)" d="M64.8 48.9c-.5.6-1.9.3-3-.6-1.2-1-1.7-2.2-1.2-2.9.5-.6 1.9-.3 3 .6 1.2.9 1.7 2.2 1.2 2.9z"/><radialGradient id="f" cx="19.461" cy="179.053" r="1.983" gradientTransform="matrix(.544 .447 -.244 .296 100.104 -10.969)" gradientUnits="userSpaceOnUse"><stop offset=".483" stop-color="#fff"/><stop offset=".551" stop-color="#FFFDFB"/><stop offset=".619" stop-color="#FFF5EF"/><stop offset=".688" stop-color="#FFE9DA"/><stop offset=".756" stop-color="#FFD7BE"/><stop offset=".826" stop-color="#FFC199"/><stop offset=".895" stop-color="#FEA56C"/><stop offset=".963" stop-color="#FE8538"/><stop offset="1" stop-color="#FE7219"/></radialGradient><path fill="url(#f)" d="M68.2 51.7c-.3.3-1 .2-1.6-.3-.6-.5-.9-1.2-.6-1.5.3-.3 1-.2 1.6.3.6.5.8 1.2.6 1.5z"/></g><g opacity=".32"><radialGradient id="g" cx="-79.955" cy="349.704" r="3.656" gradientTransform="matrix(.336 .619 .337 -.183 -68.674 196.881)" gradientUnits="userSpaceOnUse"><stop offset=".483" stop-color="#fff"/><stop offset=".551" stop-color="#FFFDFB"/><stop offset=".619" stop-color="#FFF5EF"/><stop offset=".688" stop-color="#FFE9DA"/><stop offset=".756" stop-color="#FFD7BE"/><stop offset=".826" stop-color="#FFC199"/><stop offset=".895" stop-color="#FEA56C"/><stop offset=".963" stop-color="#FE8538"/><stop offset="1" stop-color="#FE7219"/></radialGradient><path fill="url(#g)" d="M23.7 85.7c.7-.4.7-1.7 0-3s-1.8-2-2.5-1.6c-.7.4-.7 1.7 0 3 .7 1.2 1.8 1.9 2.5 1.6z"/><radialGradient id="h" cx="3.468" cy="487.344" r="2.372" gradientTransform="matrix(.51 .486 .265 -.278 -105.401 221.07)" gradientUnits="userSpaceOnUse"><stop offset=".483" stop-color="#fff"/><stop offset=".551" stop-color="#FFFDFB"/><stop offset=".619" stop-color="#FFF5EF"/><stop offset=".688" stop-color="#FFE9DA"/><stop offset=".756" stop-color="#FFD7BE"/><stop offset=".826" stop-color="#FFC199"/><stop offset=".895" stop-color="#FEA56C"/><stop offset=".963" stop-color="#FE8538"/><stop offset="1" stop-color="#FE7219"/></radialGradient><path fill="url(#h)" d="M26.7 88.6c.3-.4.1-1.2-.6-1.8-.7-.6-1.5-.9-1.8-.5-.3.4-.1 1.2.6 1.8.6.7 1.4.9 1.8.5z"/><radialGradient id="i" cx="8.519" cy="487.439" r="1.222" gradientTransform="matrix(.51 .486 .265 -.278 -105.401 221.07)" gradientUnits="userSpaceOnUse"><stop offset=".483" stop-color="#fff"/><stop offset=".551" stop-color="#FFFDFB"/><stop offset=".619" stop-color="#FFF5EF"/><stop offset=".688" stop-color="#FFE9DA"/><stop offset=".756" stop-color="#FFD7BE"/><stop offset=".826" stop-color="#FFC199"/><stop offset=".895" stop-color="#FEA56C"/><stop offset=".963" stop-color="#FE8538"/><stop offset="1" stop-color="#FE7219"/></radialGradient><path fill="url(#i)" d="M28.7 90.5c.2-.2 0-.6-.3-.9-.3-.3-.8-.5-.9-.3-.2.2 0 .6.3.9.3.4.7.5.9.3z"/></g><radialGradient id="j" cx="60.431" cy="174.755" r="47.594" gradientUnits="userSpaceOnUse"><stop offset=".483" stop-color="#fff" stop-opacity="0"/><stop offset=".551" stop-color="#FFFDFB" stop-opacity=".13"/><stop offset=".619" stop-color="#FFF5EF" stop-opacity=".262"/><stop offset=".688" stop-color="#FFE9DA" stop-opacity=".395"/><stop offset=".756" stop-color="#FFD7BE" stop-opacity=".529"/><stop offset=".826" stop-color="#FFC199" stop-opacity=".662"/><stop offset=".895" stop-color="#FEA56C" stop-opacity=".797"/><stop offset=".963" stop-color="#FE8538" stop-opacity=".929"/><stop offset="1" stop-color="#FE7219"/></radialGradient><circle fill="url(#j)" cx="60.4" cy="174.8" r="47.6"/><path fill="#fff" d="M39.6 142l-8.2-4.4c-10.9 8.7-17.9 22.1-17.9 37.2 0 7.1 1.5 13.8 4.3 19.8-3.1-40.9 21.8-52.6 21.8-52.6z" opacity=".3"/><radialGradient id="k" cx="208.447" cy="157.037" r="40.599" gradientTransform="matrix(-.468 -.279 -.469 .786 243.656 116.705)" gradientUnits="userSpaceOnUse"><stop offset=".483" stop-color="#fff"/><stop offset=".551" stop-color="#FFFDFB"/><stop offset=".619" stop-color="#FFF5EF"/><stop offset=".688" stop-color="#FFE9DA"/><stop offset=".756" stop-color="#FFD7BE"/><stop offset=".826" stop-color="#FFC199"/><stop offset=".895" stop-color="#FEA56C"/><stop offset=".963" stop-color="#FE8538"/><stop offset="1" stop-color="#FE7219"/></radialGradient><path opacity=".07" fill="url(#k)" d="M53.4 170.6c-10.5 17.6-10.6 37-.1 43.3 10.5 6.3 27.5-3 38.1-20.6 10.5-17.6 10.6-37 .1-43.3-10.5-6.2-27.5 3-38.1 20.6z"/><radialGradient id="l" cx="49.681" cy="130.816" r="29.172" gradientTransform="matrix(.961 0 0 1.367 10.343 -28.495)" gradientUnits="userSpaceOnUse"><stop offset=".483" stop-color="#fff"/><stop offset=".551" stop-color="#FFFDFB"/><stop offset=".619" stop-color="#FFF5EF"/><stop offset=".688" stop-color="#FFE9DA"/><stop offset=".756" stop-color="#FFD7BE"/><stop offset=".826" stop-color="#FFC199"/><stop offset=".895" stop-color="#FEA56C"/><stop offset=".963" stop-color="#FE8538"/><stop offset="1" stop-color="#FE7219"/></radialGradient><path opacity=".2" fill="url(#l)" d="M20.2 166.8s29.6-64.9 75.8-12.9c0 .1-48.9-13.7-75.8 12.9z"/><path fill="#fff" d="M89.3 141.7s1.8 5.7 4.7 6.7c2.8 1 15.3 21.5 13.2 34.2 0 0 .2-.6.5-1.7.2-2 .4-3.9.4-6 0-19.9-12.2-37-29.6-44.1 2.8 2.5 10.6 9 10.8 10.9z" opacity=".45"/><g opacity=".32"><radialGradient id="m" cx="46.776" cy="278.003" r="8.528" gradientTransform="matrix(.655 .259 -.141 .357 80.354 27.69)" gradientUnits="userSpaceOnUse"><stop offset=".483" stop-color="#fff"/><stop offset=".551" stop-color="#FFFDFB"/><stop offset=".619" stop-color="#FFF5EF"/><stop offset=".688" stop-color="#FFE9DA"/><stop offset=".756" stop-color="#FFD7BE"/><stop offset=".826" stop-color="#FFC199"/><stop offset=".895" stop-color="#FEA56C"/><stop offset=".963" stop-color="#FE8538"/><stop offset="1" stop-color="#FE7219"/></radialGradient><path fill="url(#m)" d="M77.5 141.2c-.7 1.7-3.7 2-6.8.8-3.1-1.2-5.1-3.6-4.5-5.2.7-1.7 3.7-2 6.8-.8 3.1 1.2 5.1 3.6 4.5 5.2z"/><radialGradient id="n" cx="120.782" cy="343.653" r="5.533" gradientTransform="matrix(.544 .447 -.244 .296 100.104 -10.969)" gradientUnits="userSpaceOnUse"><stop offset=".483" stop-color="#fff"/><stop offset=".551" stop-color="#FFFDFB"/><stop offset=".619" stop-color="#FFF5EF"/><stop offset=".688" stop-color="#FFE9DA"/><stop offset=".756" stop-color="#FFD7BE"/><stop offset=".826" stop-color="#FFC199"/><stop offset=".895" stop-color="#FEA56C"/><stop offset=".963" stop-color="#FE8538"/><stop offset="1" stop-color="#FE7219"/></radialGradient><path fill="url(#n)" d="M85.2 147.4c-.7.9-2.7.5-4.4-.9-1.7-1.4-2.5-3.2-1.7-4.1.7-.9 2.7-.5 4.4.9 1.7 1.4 2.4 3.2 1.7 4.1z"/><radialGradient id="o" cx="132.564" cy="343.875" r="2.85" gradientTransform="matrix(.544 .447 -.244 .296 100.104 -10.969)" gradientUnits="userSpaceOnUse"><stop offset=".483" stop-color="#fff"/><stop offset=".551" stop-color="#FFFDFB"/><stop offset=".619" stop-color="#FFF5EF"/><stop offset=".688" stop-color="#FFE9DA"/><stop offset=".756" stop-color="#FFD7BE"/><stop offset=".826" stop-color="#FFC199"/><stop offset=".895" stop-color="#FEA56C"/><stop offset=".963" stop-color="#FE8538"/><stop offset="1" stop-color="#FE7219"/></radialGradient><path fill="url(#o)" d="M90.1 151.6c-.4.5-1.4.3-2.3-.5-.9-.7-1.3-1.7-.9-2.1.4-.5 1.4-.3 2.3.5.9.6 1.3 1.6.9 2.1z"/></g><g opacity=".32"><radialGradient id="p" cx="63.15" cy="212.77" r="5.254" gradientTransform="matrix(.336 .619 .337 -.183 -68.674 196.881)" gradientUnits="userSpaceOnUse"><stop offset=".483" stop-color="#fff"/><stop offset=".551" stop-color="#FFFDFB"/><stop offset=".619" stop-color="#FFF5EF"/><stop offset=".688" stop-color="#FFE9DA"/><stop offset=".756" stop-color="#FFD7BE"/><stop offset=".826" stop-color="#FFC199"/><stop offset=".895" stop-color="#FEA56C"/><stop offset=".963" stop-color="#FE8538"/><stop offset="1" stop-color="#FE7219"/></radialGradient><path fill="url(#p)" d="M26.1 200.3c1-.5 1-2.4 0-4.2-1-1.8-2.6-2.9-3.5-2.3-1 .5-1 2.4 0 4.2 1 1.8 2.5 2.9 3.5 2.3z"/><radialGradient id="q" cx="119.933" cy="275.498" r="3.409" gradientTransform="matrix(.51 .486 .265 -.278 -105.401 221.07)" gradientUnits="userSpaceOnUse"><stop offset=".483" stop-color="#fff"/><stop offset=".551" stop-color="#FFFDFB"/><stop offset=".619" stop-color="#FFF5EF"/><stop offset=".688" stop-color="#FFE9DA"/><stop offset=".756" stop-color="#FFD7BE"/><stop offset=".826" stop-color="#FFC199"/><stop offset=".895" stop-color="#FEA56C"/><stop offset=".963" stop-color="#FE8538"/><stop offset="1" stop-color="#FE7219"/></radialGradient><path fill="url(#q)" d="M30.5 204.6c.5-.5.1-1.7-.9-2.6-1-.9-2.2-1.3-2.6-.7-.5.5-.1 1.7.9 2.6.9.9 2.1 1.2 2.6.7z"/><radialGradient id="r" cx="127.191" cy="275.634" r="1.755" gradientTransform="matrix(.51 .486 .265 -.278 -105.401 221.07)" gradientUnits="userSpaceOnUse"><stop offset=".483" stop-color="#fff"/><stop offset=".551" stop-color="#FFFDFB"/><stop offset=".619" stop-color="#FFF5EF"/><stop offset=".688" stop-color="#FFE9DA"/><stop offset=".756" stop-color="#FFD7BE"/><stop offset=".826" stop-color="#FFC199"/><stop offset=".895" stop-color="#FEA56C"/><stop offset=".963" stop-color="#FE8538"/><stop offset="1" stop-color="#FE7219"/></radialGradient><path fill="url(#r)" d="M33.3 207.3c.3-.3.1-.9-.4-1.3-.5-.5-1.1-.6-1.4-.4-.3.3-.1.9.4 1.3.6.5 1.2.6 1.4.4z"/></g><radialGradient id="s" cx="142.867" cy="108.381" r="20.412" gradientUnits="userSpaceOnUse"><stop offset=".483" stop-color="#fff" stop-opacity="0"/><stop offset=".551" stop-color="#FFFDFB" stop-opacity=".13"/><stop offset=".619" stop-color="#FFF5EF" stop-opacity=".262"/><stop offset=".688" stop-color="#FFE9DA" stop-opacity=".395"/><stop offset=".756" stop-color="#FFD7BE" stop-opacity=".529"/><stop offset=".826" stop-color="#FFC199" stop-opacity=".662"/><stop offset=".895" stop-color="#FEA56C" stop-opacity=".797"/><stop offset=".963" stop-color="#FE8538" stop-opacity=".929"/><stop offset="1" stop-color="#FE7219"/></radialGradient><circle fill="url(#s)" cx="142.9" cy="108.4" r="20.4"/><path fill="#fff" d="M133.9 94.3l-3.5-1.9c-4.7 3.7-7.7 9.5-7.7 15.9 0 3 .7 5.9 1.8 8.5-1.3-17.4 9.4-22.5 9.4-22.5z" opacity=".3"/><radialGradient id="t" cx="155.652" cy="48.637" r="17.412" gradientTransform="matrix(-.468 -.279 -.469 .786 243.656 116.705)" gradientUnits="userSpaceOnUse"><stop offset=".483" stop-color="#fff"/><stop offset=".551" stop-color="#FFFDFB"/><stop offset=".619" stop-color="#FFF5EF"/><stop offset=".688" stop-color="#FFE9DA"/><stop offset=".756" stop-color="#FFD7BE"/><stop offset=".826" stop-color="#FFC199"/><stop offset=".895" stop-color="#FEA56C"/><stop offset=".963" stop-color="#FE8538"/><stop offset="1" stop-color="#FE7219"/></radialGradient><path opacity=".07" fill="url(#t)" d="M139.9 106.6c-4.5 7.6-4.5 15.9 0 18.6 4.5 2.7 11.8-1.3 16.3-8.8 4.5-7.6 4.5-15.9 0-18.6-4.5-2.7-11.8 1.3-16.3 8.8z"/><radialGradient id="u" cx="136.832" cy="92.471" r="12.511" gradientTransform="matrix(.961 0 0 1.367 10.343 -28.495)" gradientUnits="userSpaceOnUse"><stop offset=".483" stop-color="#fff"/><stop offset=".551" stop-color="#FFFDFB"/><stop offset=".619" stop-color="#FFF5EF"/><stop offset=".688" stop-color="#FFE9DA"/><stop offset=".756" stop-color="#FFD7BE"/><stop offset=".826" stop-color="#FFC199"/><stop offset=".895" stop-color="#FEA56C"/><stop offset=".963" stop-color="#FE8538"/><stop offset="1" stop-color="#FE7219"/></radialGradient><path opacity=".2" fill="url(#u)" d="M125.6 105s12.7-27.8 32.5-5.5c0 0-21-5.9-32.5 5.5z"/><path fill="#fff" d="M155.2 94.2s.8 2.4 2 2.9c1.2.4 6.5 9.2 5.7 14.7 0 0 .1-.3.2-.7.1-.8.2-1.7.2-2.6 0-8.5-5.2-15.9-12.7-18.9 1.2 1 4.5 3.8 4.6 4.6z" opacity=".45"/><g opacity=".32"><radialGradient id="v" cx="123.049" cy="93.912" r="3.658" gradientTransform="matrix(.655 .259 -.141 .357 80.354 27.69)" gradientUnits="userSpaceOnUse"><stop offset=".483" stop-color="#fff"/><stop offset=".551" stop-color="#FFFDFB"/><stop offset=".619" stop-color="#FFF5EF"/><stop offset=".688" stop-color="#FFE9DA"/><stop offset=".756" stop-color="#FFD7BE"/><stop offset=".826" stop-color="#FFC199"/><stop offset=".895" stop-color="#FEA56C"/><stop offset=".963" stop-color="#FE8538"/><stop offset="1" stop-color="#FE7219"/></radialGradient><path fill="url(#v)" d="M150.2 94c-.3.7-1.6.9-2.9.3-1.3-.5-2.2-1.5-1.9-2.2.3-.7 1.6-.9 2.9-.3 1.3.5 2.2 1.5 1.9 2.2z"/><radialGradient id="w" cx="153.129" cy="128.44" r="2.373" gradientTransform="matrix(.544 .447 -.244 .296 100.104 -10.969)" gradientUnits="userSpaceOnUse"><stop offset=".483" stop-color="#fff"/><stop offset=".551" stop-color="#FFFDFB"/><stop offset=".619" stop-color="#FFF5EF"/><stop offset=".688" stop-color="#FFE9DA"/><stop offset=".756" stop-color="#FFD7BE"/><stop offset=".826" stop-color="#FFC199"/><stop offset=".895" stop-color="#FEA56C"/><stop offset=".963" stop-color="#FE8538"/><stop offset="1" stop-color="#FE7219"/></radialGradient><path fill="url(#w)" d="M153.5 96.7c-.3.4-1.2.2-1.9-.4-.7-.6-1.1-1.4-.7-1.8.3-.4 1.2-.2 1.9.4.7.6 1 1.4.7 1.8z"/><radialGradient id="x" cx="158.182" cy="128.535" r="1.222" gradientTransform="matrix(.544 .447 -.244 .296 100.104 -10.969)" gradientUnits="userSpaceOnUse"><stop offset=".483" stop-color="#fff"/><stop offset=".551" stop-color="#FFFDFB"/><stop offset=".619" stop-color="#FFF5EF"/><stop offset=".688" stop-color="#FFE9DA"/><stop offset=".756" stop-color="#FFD7BE"/><stop offset=".826" stop-color="#FFC199"/><stop offset=".895" stop-color="#FEA56C"/><stop offset=".963" stop-color="#FE8538"/><stop offset="1" stop-color="#FE7219"/></radialGradient><path fill="url(#x)" d="M155.6 98.4c-.2.2-.6.1-1-.2-.4-.3-.5-.7-.4-.9.2-.2.6-.1 1 .2.4.3.5.7.4.9z"/></g><g opacity=".32"><radialGradient id="y" cx="34.218" cy="547.145" r="2.253" gradientTransform="matrix(.336 .619 .337 -.183 -68.674 196.881)" gradientUnits="userSpaceOnUse"><stop offset=".483" stop-color="#fff"/><stop offset=".551" stop-color="#FFFDFB"/><stop offset=".619" stop-color="#FFF5EF"/><stop offset=".688" stop-color="#FFE9DA"/><stop offset=".756" stop-color="#FFD7BE"/><stop offset=".826" stop-color="#FFC199"/><stop offset=".895" stop-color="#FEA56C"/><stop offset=".963" stop-color="#FE8538"/><stop offset="1" stop-color="#FE7219"/></radialGradient><path fill="url(#y)" d="M128.1 119.4c.4-.2.4-1 0-1.8s-1.1-1.2-1.5-1c-.4.2-.4 1 0 1.8.5.7 1.1 1.2 1.5 1z"/><radialGradient id="z" cx="142.383" cy="611.893" r="1.462" gradientTransform="matrix(.51 .486 .265 -.278 -105.401 221.07)" gradientUnits="userSpaceOnUse"><stop offset=".483" stop-color="#fff"/><stop offset=".551" stop-color="#FFFDFB"/><stop offset=".619" stop-color="#FFF5EF"/><stop offset=".688" stop-color="#FFE9DA"/><stop offset=".756" stop-color="#FFD7BE"/><stop offset=".826" stop-color="#FFC199"/><stop offset=".895" stop-color="#FEA56C"/><stop offset=".963" stop-color="#FE8538"/><stop offset="1" stop-color="#FE7219"/></radialGradient><path fill="url(#z)" d="M130 121.2c.2-.2 0-.7-.4-1.1-.4-.4-.9-.5-1.1-.3-.2.2 0 .7.4 1.1.4.4.9.5 1.1.3z"/><radialGradient id="A" cx="145.495" cy="611.951" r=".753" gradientTransform="matrix(.51 .486 .265 -.278 -105.401 221.07)" gradientUnits="userSpaceOnUse"><stop offset=".483" stop-color="#fff"/><stop offset=".551" stop-color="#FFFDFB"/><stop offset=".619" stop-color="#FFF5EF"/><stop offset=".688" stop-color="#FFE9DA"/><stop offset=".756" stop-color="#FFD7BE"/><stop offset=".826" stop-color="#FFC199"/><stop offset=".895" stop-color="#FEA56C"/><stop offset=".963" stop-color="#FE8538"/><stop offset="1" stop-color="#FE7219"/></radialGradient><path fill="url(#A)" d="M131.3 122.3c.1-.1 0-.4-.2-.6-.2-.2-.5-.3-.6-.2-.1.1 0 .4.2.6.2.3.4.3.6.2z"/></g><radialGradient id="B" cx="116.421" cy="246.576" r="20.412" gradientUnits="userSpaceOnUse"><stop offset=".483" stop-color="#fff" stop-opacity="0"/><stop offset=".551" stop-color="#FFFDFB" stop-opacity=".13"/><stop offset=".619" stop-color="#FFF5EF" stop-opacity=".262"/><stop offset=".688" stop-color="#FFE9DA" stop-opacity=".395"/><stop offset=".756" stop-color="#FFD7BE" stop-opacity=".529"/><stop offset=".826" stop-color="#FFC199" stop-opacity=".662"/><stop offset=".895" stop-color="#FEA56C" stop-opacity=".797"/><stop offset=".963" stop-color="#FE8538" stop-opacity=".929"/><stop offset="1" stop-color="#FE7219"/></radialGradient><circle fill="url(#B)" cx="116.4" cy="246.6" r="20.4"/><path fill="#fff" d="M107.5 232.5l-3.5-1.9c-4.7 3.7-7.7 9.5-7.7 15.9 0 3 .7 5.9 1.8 8.5-1.3-17.5 9.4-22.5 9.4-22.5z" opacity=".3"/><radialGradient id="C" cx="67.306" cy="192.991" r="17.412" gradientTransform="matrix(-.468 -.279 -.469 .786 243.656 116.705)" gradientUnits="userSpaceOnUse"><stop offset=".483" stop-color="#fff"/><stop offset=".551" stop-color="#FFFDFB"/><stop offset=".619" stop-color="#FFF5EF"/><stop offset=".688" stop-color="#FFE9DA"/><stop offset=".756" stop-color="#FFD7BE"/><stop offset=".826" stop-color="#FFC199"/><stop offset=".895" stop-color="#FEA56C"/><stop offset=".963" stop-color="#FE8538"/><stop offset="1" stop-color="#FE7219"/></radialGradient><path opacity=".07" fill="url(#C)" d="M113.4 244.8c-4.5 7.6-4.5 15.9 0 18.6 4.5 2.7 11.8-1.3 16.3-8.8 4.5-7.6 4.5-15.9 0-18.6-4.5-2.7-11.8 1.2-16.3 8.8z"/><radialGradient id="D" cx="109.318" cy="193.579" r="12.511" gradientTransform="matrix(.961 0 0 1.367 10.343 -28.495)" gradientUnits="userSpaceOnUse"><stop offset=".483" stop-color="#fff"/><stop offset=".551" stop-color="#FFFDFB"/><stop offset=".619" stop-color="#FFF5EF"/><stop offset=".688" stop-color="#FFE9DA"/><stop offset=".756" stop-color="#FFD7BE"/><stop offset=".826" stop-color="#FFC199"/><stop offset=".895" stop-color="#FEA56C"/><stop offset=".963" stop-color="#FE8538"/><stop offset="1" stop-color="#FE7219"/></radialGradient><path opacity=".2" fill="url(#D)" d="M99.2 243.2s12.7-27.8 32.5-5.5c0 0-21-6-32.5 5.5z"/><path fill="#fff" d="M128.8 232.4s.8 2.4 2 2.9 6.5 9.2 5.7 14.7c0 0 .1-.3.2-.7.1-.8.2-1.7.2-2.6 0-8.5-5.2-15.9-12.7-18.9 1.2 1 4.5 3.8 4.6 4.6z" opacity=".45"/><g opacity=".32"><radialGradient id="E" cx="160.209" cy="454.175" r="3.658" gradientTransform="matrix(.655 .259 -.141 .357 80.354 27.69)" gradientUnits="userSpaceOnUse"><stop offset=".483" stop-color="#fff"/><stop offset=".551" stop-color="#FFFDFB"/><stop offset=".619" stop-color="#FFF5EF"/><stop offset=".688" stop-color="#FFE9DA"/><stop offset=".756" stop-color="#FFD7BE"/><stop offset=".826" stop-color="#FFC199"/><stop offset=".895" stop-color="#FEA56C"/><stop offset=".963" stop-color="#FE8538"/><stop offset="1" stop-color="#FE7219"/></radialGradient><path fill="url(#E)" d="M123.7 232.2c-.3.7-1.6.9-2.9.3-1.3-.5-2.2-1.5-1.9-2.2.3-.7 1.6-.9 2.9-.3 1.3.5 2.2 1.5 1.9 2.2z"/><radialGradient id="F" cx="248.645" cy="450.464" r="2.373" gradientTransform="matrix(.544 .447 -.244 .296 100.104 -10.969)" gradientUnits="userSpaceOnUse"><stop offset=".483" stop-color="#fff"/><stop offset=".551" stop-color="#FFFDFB"/><stop offset=".619" stop-color="#FFF5EF"/><stop offset=".688" stop-color="#FFE9DA"/><stop offset=".756" stop-color="#FFD7BE"/><stop offset=".826" stop-color="#FFC199"/><stop offset=".895" stop-color="#FEA56C"/><stop offset=".963" stop-color="#FE8538"/><stop offset="1" stop-color="#FE7219"/></radialGradient><path fill="url(#F)" d="M127 234.9c-.3.4-1.2.2-1.9-.4-.7-.6-1.1-1.4-.7-1.8.3-.4 1.2-.2 1.9.4.7.6 1.1 1.4.7 1.8z"/><radialGradient id="G" cx="253.698" cy="450.559" r="1.222" gradientTransform="matrix(.544 .447 -.244 .296 100.104 -10.969)" gradientUnits="userSpaceOnUse"><stop offset=".483" stop-color="#fff"/><stop offset=".551" stop-color="#FFFDFB"/><stop offset=".619" stop-color="#FFF5EF"/><stop offset=".688" stop-color="#FFE9DA"/><stop offset=".756" stop-color="#FFD7BE"/><stop offset=".826" stop-color="#FFC199"/><stop offset=".895" stop-color="#FEA56C"/><stop offset=".963" stop-color="#FE8538"/><stop offset="1" stop-color="#FE7219"/></radialGradient><path fill="url(#G)" d="M129.1 236.6c-.2.2-.6.1-1-.2-.4-.3-.5-.7-.4-.9.2-.2.6-.1 1 .2.4.3.6.7.4.9z"/></g><g opacity=".32"><radialGradient id="H" cx="188.727" cy="314.781" r="2.253" gradientTransform="matrix(.336 .619 .337 -.183 -68.674 196.881)" gradientUnits="userSpaceOnUse"><stop offset=".483" stop-color="#fff"/><stop offset=".551" stop-color="#FFFDFB"/><stop offset=".619" stop-color="#FFF5EF"/><stop offset=".688" stop-color="#FFE9DA"/><stop offset=".756" stop-color="#FFD7BE"/><stop offset=".826" stop-color="#FFC199"/><stop offset=".895" stop-color="#FEA56C"/><stop offset=".963" stop-color="#FE8538"/><stop offset="1" stop-color="#FE7219"/></radialGradient><path fill="url(#H)" d="M101.7 257.5c.4-.2.4-1 0-1.8s-1.1-1.2-1.5-1c-.4.2-.4 1 0 1.8s1.1 1.3 1.5 1z"/><radialGradient id="I" cx="250.64" cy="303.758" r="1.462" gradientTransform="matrix(.51 .486 .265 -.278 -105.401 221.07)" gradientUnits="userSpaceOnUse"><stop offset=".483" stop-color="#fff"/><stop offset=".551" stop-color="#FFFDFB"/><stop offset=".619" stop-color="#FFF5EF"/><stop offset=".688" stop-color="#FFE9DA"/><stop offset=".756" stop-color="#FFD7BE"/><stop offset=".826" stop-color="#FFC199"/><stop offset=".895" stop-color="#FEA56C"/><stop offset=".963" stop-color="#FE8538"/><stop offset="1" stop-color="#FE7219"/></radialGradient><path fill="url(#I)" d="M103.6 259.4c.2-.2 0-.7-.4-1.1-.4-.4-.9-.5-1.1-.3-.2.2 0 .7.4 1.1.3.4.9.5 1.1.3z"/><radialGradient id="J" cx="253.753" cy="303.816" r=".753" gradientTransform="matrix(.51 .486 .265 -.278 -105.401 221.07)" gradientUnits="userSpaceOnUse"><stop offset=".483" stop-color="#fff"/><stop offset=".551" stop-color="#FFFDFB"/><stop offset=".619" stop-color="#FFF5EF"/><stop offset=".688" stop-color="#FFE9DA"/><stop offset=".756" stop-color="#FFD7BE"/><stop offset=".826" stop-color="#FFC199"/><stop offset=".895" stop-color="#FEA56C"/><stop offset=".963" stop-color="#FE8538"/><stop offset="1" stop-color="#FE7219"/></radialGradient><path fill="url(#J)" d="M104.8 260.5c.1-.1 0-.4-.2-.6-.2-.2-.5-.3-.6-.2-.1.1 0 .4.2.6.2.3.5.3.6.2z"/></g><radialGradient id="K" cx="67.576" cy="294.207" r="13.605" gradientUnits="userSpaceOnUse"><stop offset=".483" stop-color="#fff" stop-opacity="0"/><stop offset=".551" stop-color="#FFFDFB" stop-opacity=".13"/><stop offset=".619" stop-color="#FFF5EF" stop-opacity=".262"/><stop offset=".688" stop-color="#FFE9DA" stop-opacity=".395"/><stop offset=".756" stop-color="#FFD7BE" stop-opacity=".529"/><stop offset=".826" stop-color="#FFC199" stop-opacity=".662"/><stop offset=".895" stop-color="#FEA56C" stop-opacity=".797"/><stop offset=".963" stop-color="#FE8538" stop-opacity=".929"/><stop offset="1" stop-color="#FE7219"/></radialGradient><circle fill="url(#K)" cx="67.6" cy="294.2" r="13.6"/><path fill="#fff" d="M61.6 284.8l-2.3-1.3c-3.1 2.5-5.1 6.3-5.1 10.6 0 2 .4 3.9 1.2 5.7-.9-11.6 6.2-15 6.2-15z" opacity=".3"/><radialGradient id="L" cx="103.14" cy="264.973" r="11.606" gradientTransform="matrix(-.468 -.279 -.469 .786 243.656 116.705)" gradientUnits="userSpaceOnUse"><stop offset=".483" stop-color="#fff"/><stop offset=".551" stop-color="#FFFDFB"/><stop offset=".619" stop-color="#FFF5EF"/><stop offset=".688" stop-color="#FFE9DA"/><stop offset=".756" stop-color="#FFD7BE"/><stop offset=".826" stop-color="#FFC199"/><stop offset=".895" stop-color="#FEA56C"/><stop offset=".963" stop-color="#FE8538"/><stop offset="1" stop-color="#FE7219"/></radialGradient><path opacity=".07" fill="url(#L)" d="M65.6 293c-3 5-3 10.6 0 12.4 3 1.8 7.9-.8 10.9-5.9 3-5 3-10.6 0-12.4-3-1.7-7.9.9-10.9 5.9z"/><radialGradient id="M" cx="58.849" cy="230.987" r="8.339" gradientTransform="matrix(.961 0 0 1.367 10.343 -28.495)" gradientUnits="userSpaceOnUse"><stop offset=".483" stop-color="#fff"/><stop offset=".551" stop-color="#FFFDFB"/><stop offset=".619" stop-color="#FFF5EF"/><stop offset=".688" stop-color="#FFE9DA"/><stop offset=".756" stop-color="#FFD7BE"/><stop offset=".826" stop-color="#FFC199"/><stop offset=".895" stop-color="#FEA56C"/><stop offset=".963" stop-color="#FE8538"/><stop offset="1" stop-color="#FE7219"/></radialGradient><path opacity=".2" fill="url(#M)" d="M56.1 291.9s8.5-18.5 21.7-3.7c-.1.1-14-3.9-21.7 3.7z"/><path fill="#fff" d="M75.8 284.8s.5 1.6 1.3 1.9c.8.3 4.4 6.1 3.8 9.8 0 0 .1-.2.1-.5.1-.6.1-1.1.1-1.7 0-5.7-3.5-10.6-8.5-12.6.9.7 3.2 2.5 3.2 3.1z" opacity=".45"/><g opacity=".32"><radialGradient id="N" cx="121.09" cy="630.323" r="2.438" gradientTransform="matrix(.655 .259 -.141 .357 80.354 27.69)" gradientUnits="userSpaceOnUse"><stop offset=".483" stop-color="#fff"/><stop offset=".551" stop-color="#FFFDFB"/><stop offset=".619" stop-color="#FFF5EF"/><stop offset=".688" stop-color="#FFE9DA"/><stop offset=".756" stop-color="#FFD7BE"/><stop offset=".826" stop-color="#FFC199"/><stop offset=".895" stop-color="#FEA56C"/><stop offset=".963" stop-color="#FE8538"/><stop offset="1" stop-color="#FE7219"/></radialGradient><path fill="url(#N)" d="M72.4 284.6c-.2.5-1.1.6-2 .2-.9-.4-1.5-1-1.3-1.5.2-.5 1.1-.6 2-.2 1 .4 1.5 1.1 1.3 1.5z"/><radialGradient id="O" cx="238.432" cy="640.897" r="1.582" gradientTransform="matrix(.544 .447 -.244 .296 100.104 -10.969)" gradientUnits="userSpaceOnUse"><stop offset=".483" stop-color="#fff"/><stop offset=".551" stop-color="#FFFDFB"/><stop offset=".619" stop-color="#FFF5EF"/><stop offset=".688" stop-color="#FFE9DA"/><stop offset=".756" stop-color="#FFD7BE"/><stop offset=".826" stop-color="#FFC199"/><stop offset=".895" stop-color="#FEA56C"/><stop offset=".963" stop-color="#FE8538"/><stop offset="1" stop-color="#FE7219"/></radialGradient><path fill="url(#O)" d="M74.7 286.4c-.2.3-.8.1-1.3-.3s-.7-.9-.5-1.2c.2-.3.8-.1 1.3.3.4.4.7.9.5 1.2z"/><radialGradient id="P" cx="241.8" cy="640.961" r=".815" gradientTransform="matrix(.544 .447 -.244 .296 100.104 -10.969)" gradientUnits="userSpaceOnUse"><stop offset=".483" stop-color="#fff"/><stop offset=".551" stop-color="#FFFDFB"/><stop offset=".619" stop-color="#FFF5EF"/><stop offset=".688" stop-color="#FFE9DA"/><stop offset=".756" stop-color="#FFD7BE"/><stop offset=".826" stop-color="#FFC199"/><stop offset=".895" stop-color="#FEA56C"/><stop offset=".963" stop-color="#FE8538"/><stop offset="1" stop-color="#FE7219"/></radialGradient><path fill="url(#P)" d="M76.1 287.6c-.1.1-.4.1-.6-.1-.2-.2-.4-.5-.3-.6.1-.1.4-.1.6.1.2.2.4.4.3.6z"/></g><g opacity=".32"><radialGradient id="Q" cx="214.609" cy="159.493" r="1.502" gradientTransform="matrix(.336 .619 .337 -.183 -68.674 196.881)" gradientUnits="userSpaceOnUse"><stop offset=".483" stop-color="#fff"/><stop offset=".551" stop-color="#FFFDFB"/><stop offset=".619" stop-color="#FFF5EF"/><stop offset=".688" stop-color="#FFE9DA"/><stop offset=".756" stop-color="#FFD7BE"/><stop offset=".826" stop-color="#FFC199"/><stop offset=".895" stop-color="#FEA56C"/><stop offset=".963" stop-color="#FE8538"/><stop offset="1" stop-color="#FE7219"/></radialGradient><path fill="url(#Q)" d="M57.8 301.5c.3-.1.3-.7 0-1.2s-.7-.8-1-.7c-.3.2-.3.7 0 1.2.2.6.7.9 1 .7z"/><radialGradient id="R" cx="247.868" cy="141.831" r=".974" gradientTransform="matrix(.51 .486 .265 -.278 -105.401 221.07)" gradientUnits="userSpaceOnUse"><stop offset=".483" stop-color="#fff"/><stop offset=".551" stop-color="#FFFDFB"/><stop offset=".619" stop-color="#FFF5EF"/><stop offset=".688" stop-color="#FFE9DA"/><stop offset=".756" stop-color="#FFD7BE"/><stop offset=".826" stop-color="#FFC199"/><stop offset=".895" stop-color="#FEA56C"/><stop offset=".963" stop-color="#FE8538"/><stop offset="1" stop-color="#FE7219"/></radialGradient><path fill="url(#R)" d="M59 302.7c.1-.1 0-.5-.2-.7-.3-.3-.6-.4-.8-.2-.1.1 0 .5.2.7.3.3.7.4.8.2z"/><radialGradient id="S" cx="249.943" cy="141.87" r=".502" gradientTransform="matrix(.51 .486 .265 -.278 -105.401 221.07)" gradientUnits="userSpaceOnUse"><stop offset=".483" stop-color="#fff"/><stop offset=".551" stop-color="#FFFDFB"/><stop offset=".619" stop-color="#FFF5EF"/><stop offset=".688" stop-color="#FFE9DA"/><stop offset=".756" stop-color="#FFD7BE"/><stop offset=".826" stop-color="#FFC199"/><stop offset=".895" stop-color="#FEA56C"/><stop offset=".963" stop-color="#FE8538"/><stop offset="1" stop-color="#FE7219"/></radialGradient><path fill="url(#S)" d="M59.8 303.5c.1-.1 0-.2-.1-.4-.1-.1-.3-.2-.4-.1-.1.1 0 .2.1.4.2.1.4.2.4.1z"/></g></svg>