<svg xmlns="http://www.w3.org/2000/svg" viewBox="0 0 50.6 60" enable-background="new 0 0 50.6 60"><path fill="#404041" d="M39.7 10.2c-1.1 1.1-2.6 1.5-4.3 1.5-2.1 0-4-.9-5.1-2.5-1.1 1.7-3 2.5-5.2 2.5-2.1 0-4-.9-5.1-2.5-1.1 1.7-3 2.5-5.2 2.5-1.6 0-3-.4-4.1-1.3l-.7-5.9c1.1 1.5 2.9 2.5 4.9 2.5 2.2 0 4.1-1.1 5.2-2.8 1.1 1.6 3 2.8 5.1 2.8 2.1 0 4.1-1.1 5.2-2.8 1.1 1.6 3 2.8 5.1 2.8 2.2 0 4.1-1.1 5.1-2.8l-.9 6z"/><path fill="#404041" d="M41.3 60.1l9.3-60.1-6.3.1-8.5 53.7h-21l-8.5-53.7-6.3-.1 9.3 60.1h32z"/></svg>