<svg xmlns="http://www.w3.org/2000/svg" viewBox="0 0 71.7 60" enable-background="new 0 0 71.7 60"><g><g fill="#404041"><path d="M11.4 54.8c-4.7 0-8.4-6.4-8.4-14.3s3.8-14.3 8.5-14.3h15.5c-4.7 0-8.5 6.4-8.5 14.3s3.8 14.3 8.5 14.3h-15.6zM26.9 56.6h-15.5c-5.7 0-10.2-7.1-10.2-16.1 0-9 4.5-16.1 10.2-16.1h15.5c1 0 1.7.8 1.7 1.7 0 1-.8 1.7-1.7 1.7-3.6 0-6.7 5.8-6.7 12.6s3.1 12.6 6.7 12.6c1 0 1.7.8 1.7 1.7.1 1.1-.7 1.9-1.7 1.9zm-15.5-28.7c-3.6 0-6.7 5.8-6.7 12.6s3.1 12.6 6.7 12.6h9.1c-2.3-2.9-3.8-7.4-3.8-12.6 0-5.2 1.5-9.7 3.8-12.6h-9.1z"/></g><path fill="#404041" d="M39 60.1c-2.8 0-5.4-.3-6.8-.6-6.1-1.4-8.1-7.3-8.4-10.2-.1-1 .6-1.8 1.6-1.9 1-.1 1.8.6 1.9 1.6 0 .2.6 5.9 5.7 7.1 3.8.9 11.3.8 13.5-.9.8-.6 1.8-.5 2.4.3.6.8.5 1.8-.3 2.4-2.1 1.7-6 2.2-9.6 2.2zM61.1 45.4c-3.6 0-7.7-.9-9.2-2.7-1.3-1.5-1.9-4.7-.6-6.9.7-1.2 2.6-3.1 7-2 .9.2 1.5 1.2 1.3 2.1-.2.9-1.2 1.5-2.1 1.3-1-.2-2.7-.5-3.3.4-.5.9-.1 2.4.2 2.8 1 1.1 7.2 2.2 9.8 1.1.9-.4 2.1-1.1 2.6-2.3.4-1.1.1-2.6-1-4.4-.5-.8-.2-1.9.6-2.4s1.9-.2 2.4.6c1.5 2.7 2 5.2 1.2 7.3-.7 1.9-2.2 3.4-4.5 4.4-1 .5-2.7.7-4.4.7zM60.6 37.6c-3.5 0-7.5-1-9-2.7-1.3-1.5-1.9-4.4-.7-6.5.7-1.2 2.5-3.1 6.9-2.2.9.2 1.5 1.1 1.4 2-.2.9-1.1 1.5-2 1.4-.8-.2-2.7-.4-3.2.5-.5.8-.1 2.2.2 2.5 1 1.1 7.2 2.3 9.4 1.1 1.5-.8 2.7-3.7 2.1-6.3-.8-3.3-4.3-5.1-9.7-5.1-1 0-1.7-.8-1.7-1.7s.8-1.7 1.7-1.7c10 0 12.5 5.4 13 7.7 1 4-.7 8.5-3.8 10.2-1.1.6-2.8.8-4.6.8zM57.3 53.8c-3.1 0-6.5-1-8-2.7-1.4-1.5-2-4.9-.8-7.3.6-1.2 2.3-3.3 6.3-2.9.9.1 1.6.9 1.5 1.9-.1.9-.9 1.7-1.9 1.5-2.3-.2-2.8.7-2.9 1-.6 1.2-.1 3 .3 3.5 1.2 1.3 5.7 2.1 8.1 1.1 1-.4 2-3.4 1.8-4.3-.3-.9.3-1.9 1.2-2.1.9-.3 1.9.3 2.2 1.2.7 2.2-1 7.3-3.8 8.4-1.1.5-2.5.7-4 .7zM51.9 59.2c-2.7 0-5.6-.9-7-2.4-1.2-1.4-1.8-4.4-.7-6.6.6-1.1 2.1-3 5.7-2.6 1 .1 1.6.9 1.5 1.9-.1.9-.9 1.6-1.9 1.5-1.8-.2-2.1.5-2.2.7-.5.9-.1 2.4.2 2.7.8.9 4.6 1.7 6.7.9.7-.3 1.2-1.8 1.4-3 .1-.9.9-1.6 1.9-1.5.9.1 1.6.9 1.5 1.9-.1 1.1-.7 4.7-3.5 5.9-1 .4-2.3.6-3.6.6z"/></g><path fill="#404041" d="M38.4 43.7c-.8 0-1.5-.6-1.7-1.4-.2-.9.4-1.8 1.4-2 .2 0 4.7-1 6.6-6.2 2.3-6.3-2.3-12.3-2.3-12.3-.5-.6-.5-1.5 0-2.2 2.1-2.6 2.5-5.1 2.5-6.8 0-.6-.3-3.8-4.2-7.1-2.2-1.8-3-1.8-4.2-1.3.1.6.6 1.8.9 2.6.6 1.4 1.3 2.9 1.2 4.3-.1 2.2-.2 6.8-4.3 12.3-4 5.5-11.7 6.9-12 6.9-.9.2-1.8-.5-2-1.4-.2-.9.5-1.8 1.4-2 .1 0 6.7-1.2 9.8-5.6 3.4-4.7 3.5-8.3 3.6-10.4 0-.6-.5-1.8-.9-2.8-.9-2.2-2.4-5.5.5-6.9 3.3-1.5 5.6-.5 8.2 1.6 5 4.1 5.5 8.5 5.5 9.7 0 1.6-.3 4.7-2.5 8 1.5 2.4 4.4 8.2 2.1 14.6-2.7 7.1-9 8.4-9.2 8.4h-.4z"/></svg>