<svg xmlns="http://www.w3.org/2000/svg" viewBox="0 0 62.6 60" enable-background="new 0 0 62.6 60"><path fill="#404041" d="M16 38.3c0 2.6 10.2 10.5 16.3 10.2 6.1-.3 15.9-6 15.6-9.1-.3-3.1-5.1 4-14.9 3.4-9.9-.5-17-7.1-17-4.5zM27.7 29.2c.5-1.6 1.9-2.5 3-1.9 1 .5 1.4 2.1.8 3.5-.5 1.4-1.7 2.2-2.7 1.9-1.1-.4-1.6-2-1.1-3.5zM32.9 30.7c-.5-1.4-.2-3 .8-3.5 1.1-.5 2.5.3 3 1.9.5 1.6 0 3.1-1.1 3.5-1 .4-2.2-.5-2.7-1.9z"/><ellipse fill="#404041" cx="23.6" cy="23" rx="2.5" ry="3.2"/><path fill="#404041" d="M36.8 22.4c0-2.5 1.6-4.5 3.6-4.5s3.6 2 3.6 4.5-1.6 4.5-3.6 4.5-3.6-2-3.6-4.5zM19.8 22.4c0-2.5 1.6-4.5 3.6-4.5s3.6 2 3.6 4.5-1.6 4.5-3.6 4.5-3.6-2-3.6-4.5zM6.8 19.7c-3.1-.9-3.6 3.2-3.6 3.2l1.8-2.1s-.8 3 .3 4c1.1.9 4.6-4.2 1.5-5.1zM55.9 19.7c-3.1.9.3 6 1.5 5 1.1-1 .3-4 .3-4l1.8 2.1c-.1.1-.5-4-3.6-3.1zM17.3 23.9c-6.9 3-12.1 8.4-12.1 16.6 0 13.6 14.1 19.5 26.4 19.5 12.2 0 26.4-5.9 26.4-19.4 0-2-.3-3.9-.9-5.5-.5-1.5-2.2-4.2-3-5.6-.1-.2-.2-.4-.2-.6 12.8 3.5 10.9-20.1-.4-13.5-1.8-5.2-5.7-7.6-10.3-9.3 8.4-1.4-3.5-1.9-4.2-2.1.1-.4 2.4-1.8-4.3-1.4 6.8-4.1-20.5-4.4-25.6 12.7-11.3-6.6-12.4 16.5-1.6 13.4 1.4-.6 1.6-1.2 1.7-1.7.2-.8-.5-1.2-1.2-.9-8.4 3.7-8.3-13.2 1.1-6.8.5.4 1.1.2 1.3-.5 2.2-6.8 7.6-10.1 13.9-12-.7.6-.2 1.8.8 1.5 2.3-.6 4.2-.9 6-1-1.8.8-1.5 2.5-.1 2 8.7-3 18.4.2 21.1 9.4.2.6.8.9 1.3.5 8.9-6.5 9.7 10.5.2 7.2-.6-.2-5.5-1.4-6.5-2-.2-.1-.5-.2-.7-.4 1.7 1.8 6.6 7.5 6.9 16.3.3 9.3-10 16.7-21.8 16.7-11.9 0-21.8-7.4-21.8-16.7.1-5.2 2.5-11.6 7.6-16.4z"/></svg>